<svg width="100%" height="100%" viewBox="0 0 256 256" fill="none" xmlns="http://www.w3.org/2000/svg">
<circle cx="128" cy="128" r="127.5" fill="#FF6060" stroke="#E65757"/>
<circle cx="128" cy="128" r="115" fill="white" stroke="#D65151" stroke-width="2"/>
<path d="M99.7592 225.959C100.033 224.938 101.088 224.341 102.11 224.614C103.131 224.887 103.753 225.934 103.48 226.956L103.443 227.094C103.168 228.121 102.111 228.731 101.084 228.456C100.057 228.181 99.4469 227.125 99.722 226.098L99.7592 225.959ZM156.279 226.097C156.554 227.125 155.945 228.181 154.917 228.456C153.89 228.732 152.834 228.122 152.558 227.095L152.521 226.956C152.247 225.934 152.869 224.887 153.891 224.614C154.912 224.341 155.968 224.937 156.242 225.958L156.279 226.097ZM75.3715 215.305C75.9006 214.389 77.0778 214.086 77.994 214.616C78.9087 215.146 79.2359 216.315 78.7077 217.23L78.632 217.362C78.1003 218.283 76.9223 218.599 76.001 218.067C75.08 217.535 74.7643 216.357 75.2959 215.436L75.3715 215.305ZM180.705 215.435C181.237 216.356 180.922 217.534 180 218.066C179.079 218.599 177.901 218.283 177.369 217.362L177.293 217.23C176.764 216.314 177.091 215.144 178.007 214.615C178.923 214.085 180.1 214.387 180.629 215.304L180.705 215.435ZM38.7693 177.294C39.6847 176.765 40.8546 177.093 41.3839 178.008C41.9137 178.924 41.6118 180.1 40.6955 180.63L40.5649 180.705C39.6437 181.237 38.4656 180.922 37.9337 180C37.402 179.079 37.7175 177.902 38.6385 177.37L38.7693 177.294ZM217.362 177.37C218.283 177.902 218.599 179.079 218.067 180.001C217.535 180.922 216.357 181.237 215.436 180.706L215.304 180.63C214.387 180.1 214.085 178.923 214.615 178.007C215.144 177.092 216.314 176.764 217.229 177.293L217.362 177.37ZM29.043 152.522C30.065 152.248 31.1116 152.87 31.3851 153.892C31.6583 154.913 31.0619 155.968 30.041 156.242L29.9037 156.279C28.8763 156.555 27.82 155.945 27.5447 154.917C27.2694 153.89 27.879 152.834 28.9063 152.559L29.043 152.522ZM227.095 152.559C228.123 152.834 228.732 153.89 228.457 154.918C228.182 155.945 227.125 156.555 226.098 156.279L225.958 156.242C224.937 155.968 224.34 154.913 224.614 153.891C224.887 152.869 225.934 152.247 226.956 152.521L227.095 152.559ZM228.457 101.083C228.732 102.11 228.122 103.166 227.095 103.441L226.955 103.479C225.933 103.752 224.887 103.131 224.614 102.109C224.34 101.088 224.937 100.032 225.958 99.7587L226.099 99.7211C227.126 99.4461 228.181 100.056 228.457 101.083ZM30.0403 99.7575C31.0615 100.031 31.6582 101.087 31.385 102.108C31.1115 103.13 30.0653 103.751 29.0434 103.478L28.9064 103.441C27.879 103.166 27.2692 102.11 27.5442 101.083C27.8193 100.055 28.8753 99.4454 29.9028 99.7206L30.0403 99.7575ZM218.068 76.0004C218.599 76.9217 218.284 78.0997 217.362 78.6315L217.23 78.7077C216.315 79.2361 215.145 78.9089 214.616 77.9938C214.086 77.0773 214.389 75.8999 215.306 75.3708L215.437 75.295C216.358 74.7635 217.536 75.0793 218.068 76.0004ZM40.6935 75.3697C41.6103 75.8989 41.9125 77.0762 41.3827 77.9926C40.8536 78.9077 39.6837 79.2349 38.7682 78.7063L38.6389 78.6316C37.7177 78.0997 37.4021 76.9218 37.9339 76.0006C38.4657 75.0794 39.6436 74.7637 40.5648 75.2954L40.6935 75.3697ZM180.001 37.9331C180.922 38.4649 181.238 39.643 180.706 40.5643L180.63 40.6953C180.101 41.6119 178.924 41.914 178.008 41.3842C177.092 40.855 176.765 39.6849 177.294 38.7694L177.37 38.6378C177.902 37.7168 179.08 37.4013 180.001 37.9331ZM78.7064 38.7688C79.2348 39.6842 78.9076 40.8538 77.9928 41.383C77.0767 41.9129 75.8996 41.6109 75.3704 40.6943L75.2952 40.5641C74.7634 39.6429 75.0791 38.465 76.0003 37.9333C76.9215 37.4015 78.0993 37.7172 78.6311 38.6384L78.7064 38.7688ZM103.479 29.0432C103.753 30.0653 103.131 31.1119 102.109 31.3853C101.087 31.6585 100.032 31.0616 99.7581 30.0403L99.7211 29.9018C99.446 28.8744 100.056 27.8185 101.083 27.5432C102.111 27.2678 103.167 27.8776 103.442 28.9052L103.479 29.0432ZM154.918 27.544C155.946 27.8194 156.555 28.8757 156.28 29.9032L156.243 30.0409C155.969 31.062 154.914 31.6586 153.892 31.3854C152.87 31.112 152.248 30.0651 152.522 29.0428L152.559 28.9055C152.835 27.8782 153.891 27.2687 154.918 27.544Z" fill="black"/>
<path d="M128 34.1758C124.933 34.1758 123.104 31.8027 123.113 27.6367C123.104 23.4883 124.95 21.0977 128 21.0977C131.05 21.0977 132.887 23.4883 132.887 27.6367C132.887 31.8115 131.059 34.1758 128 34.1758ZM125.416 27.6367C125.416 30.6953 126.4 32.251 128 32.2598C129.591 32.251 130.584 30.6953 130.584 27.6367C130.575 24.6045 129.591 23.0049 128 22.9961C126.409 23.0049 125.425 24.6045 125.416 27.6367Z" fill="black"/>
<path d="M199.305 63.1758C196.589 63.1758 194.646 61.6992 194.594 59.5547H196.896C196.958 60.5742 197.978 61.251 199.305 61.2422C200.702 61.251 201.713 60.4775 201.713 59.3438C201.713 58.2012 200.729 57.3838 199.076 57.375H197.934V55.6172H199.076C200.43 55.6172 201.37 54.8613 201.361 53.7539C201.37 52.6816 200.562 51.9609 199.322 51.9609C198.127 51.9609 197.099 52.6289 197.055 53.7012H194.857C194.91 51.5654 196.853 50.0977 199.34 50.0977C201.924 50.0977 203.594 51.6797 203.576 53.6309C203.594 55.0547 202.645 56.083 201.256 56.373V56.4785C203.049 56.7158 204.068 57.8672 204.051 59.4668C204.068 61.6201 202.056 63.1758 199.305 63.1758Z" fill="black"/>
<path d="M52.0547 63V61.3477L56.5547 57.0059C57.8379 55.7227 58.5059 54.9668 58.5059 53.8945C58.5059 52.708 57.5654 51.9609 56.3262 51.9609C55.0166 51.9609 54.1729 52.7783 54.1816 54.0703H52.002C51.9932 51.6621 53.8037 50.0977 56.3438 50.0977C58.9453 50.0977 60.6943 51.6533 60.7031 53.7891C60.6943 55.2217 60.0088 56.3818 57.5039 58.7461L55.2363 60.9961V61.084H60.8965V63H52.0547ZM68.0684 50.2734V63H65.7656V52.5059H65.6953L62.7246 54.4043V52.3125L65.8711 50.2734H68.0684Z" fill="black"/>
<path d="M199.305 203.176C196.589 203.176 194.646 201.699 194.594 199.555H196.896C196.958 200.574 197.978 201.251 199.305 201.242C200.702 201.251 201.713 200.478 201.713 199.344C201.713 198.201 200.729 197.384 199.076 197.375H197.934V195.617H199.076C200.43 195.617 201.37 194.861 201.361 193.754C201.37 192.682 200.562 191.961 199.322 191.961C198.127 191.961 197.099 192.629 197.055 193.701H194.857C194.91 191.565 196.853 190.098 199.34 190.098C201.924 190.098 203.594 191.68 203.576 193.631C203.594 195.055 202.645 196.083 201.256 196.373V196.479C203.049 196.716 204.068 197.867 204.051 199.467C204.068 201.62 202.056 203.176 199.305 203.176Z" fill="black"/>
<path d="M57.2227 190.273V203H54.9199V192.506H54.8496L51.8789 194.404V192.312L55.0254 190.273H57.2227ZM64.834 203.176C62.2939 203.176 60.4219 201.655 60.3516 199.555H62.584C62.6543 200.583 63.6299 201.321 64.834 201.33C66.2578 201.321 67.2861 200.293 67.2773 198.887C67.2861 197.428 66.2314 196.399 64.7637 196.391C63.7705 196.382 63.0498 196.733 62.6543 197.48H60.5273L61.3008 190.273H68.8242V192.189H63.1816L62.7949 195.564H62.918C63.4102 195.011 64.333 194.606 65.3789 194.598C67.7432 194.606 69.501 196.364 69.4922 198.816C69.501 201.356 67.585 203.176 64.834 203.176Z" fill="black"/>
<path d="M124.669 221.273V234H122.366V223.506H122.296L119.325 225.404V223.312L122.472 221.273H124.669ZM127.763 234V232.348L132.263 228.006C133.546 226.723 134.214 225.967 134.214 224.895C134.214 223.708 133.273 222.961 132.034 222.961C130.725 222.961 129.881 223.778 129.89 225.07H127.71C127.701 222.662 129.512 221.098 132.052 221.098C134.653 221.098 136.402 222.653 136.411 224.789C136.402 226.222 135.717 227.382 133.212 229.746L130.944 231.996V232.084H136.604V234H127.763Z" fill="black"/>
<path d="M230.428 134.676C227.94 134.658 225.462 133.182 225.471 128.488C225.471 124.138 227.448 121.598 230.568 121.598C233.021 121.598 234.708 123.136 234.998 125.201H232.73C232.502 124.226 231.729 123.575 230.568 123.584C228.723 123.575 227.694 125.21 227.686 127.891H227.809C228.459 126.792 229.681 126.142 231.078 126.15C233.363 126.142 235.13 127.873 235.121 130.281C235.13 132.812 233.24 134.693 230.428 134.676ZM227.932 130.352C227.949 131.679 228.986 132.821 230.428 132.83C231.843 132.821 232.897 131.731 232.906 130.334C232.897 128.98 231.878 127.891 230.463 127.891C229.03 127.891 227.949 129.024 227.932 130.352Z" fill="black"/>
<path d="M26.2227 121.773V134.5H23.9199V124.006H23.8496L20.8789 125.904V123.812L24.0254 121.773H26.2227ZM33.9395 134.676C31.1006 134.676 29.0967 133.164 29.1055 131.09C29.0967 129.473 30.3008 128.154 31.8301 127.908V127.838C30.4941 127.557 29.5889 126.396 29.5801 125.008C29.5889 123.039 31.4258 121.598 33.9395 121.598C36.4355 121.598 38.2812 123.039 38.2812 125.008C38.2812 126.405 37.3496 127.557 36.0312 127.838V127.908C37.5518 128.154 38.7646 129.473 38.7734 131.09C38.7646 133.164 36.752 134.676 33.9395 134.676ZM31.4609 130.879C31.4521 132.057 32.4277 132.865 33.9395 132.865C35.4336 132.865 36.4092 132.057 36.418 130.879C36.4092 129.684 35.3721 128.796 33.9395 128.805C32.5068 128.796 31.4521 129.675 31.4609 130.879ZM31.8125 125.219C31.8213 126.335 32.7002 127.1 33.9395 127.1C35.1611 127.1 36.0488 126.335 36.0488 125.219C36.0488 124.138 35.1875 123.391 33.9395 123.391C32.665 123.391 31.8213 124.138 31.8125 125.219Z" fill="black"/>
<path d="M127.004 27.9566C127.11 26.7391 128.89 26.7391 128.996 27.9566L133.913 84.5025C133.971 85.1665 133.973 85.8342 133.92 86.4986L131.358 118.525C131.255 119.802 132.016 120.963 133.014 121.767C134.835 123.233 136 125.481 136 128.001C136 132.419 132.418 136 128 136.001C123.582 136.001 120 132.419 120 128.001C120 125.481 121.165 123.234 122.985 121.767C123.983 120.963 124.744 119.803 124.642 118.525L122.08 86.4986C122.027 85.8341 122.029 85.1665 122.087 84.5025L127.004 27.9566Z" fill="#404042"/>
<path d="M127.004 27.9566C127.11 26.7391 128.89 26.7391 128.996 27.9566L133.913 84.5025C133.971 85.1665 133.973 85.8342 133.92 86.4986L131.358 118.525C131.255 119.802 132.016 120.963 133.014 121.767C134.835 123.233 136 125.481 136 128.001C136 132.419 132.418 136 128 136.001C123.582 136.001 120 132.419 120 128.001C120 125.481 121.165 123.234 122.985 121.767C123.983 120.963 124.744 119.803 124.642 118.525L122.08 86.4986C122.027 85.8341 122.029 85.1665 122.087 84.5025L127.004 27.9566Z" fill="#404042"/>
<g filter="url(#filter0_i_120_940)">
<circle cx="128" cy="128" r="4" fill="#FFC635"/>
</g>
<defs>
<filter id="filter0_i_120_940" x="124" y="124" width="8" height="8" filterUnits="userSpaceOnUse" color-interpolation-filters="sRGB">
<feFlood flood-opacity="0" result="BackgroundImageFix"/>
<feBlend mode="normal" in="SourceGraphic" in2="BackgroundImageFix" result="shape"/>
<feColorMatrix in="SourceAlpha" type="matrix" values="0 0 0 0 0 0 0 0 0 0 0 0 0 0 0 0 0 0 127 0" result="hardAlpha"/>
<feOffset dy="-1"/>
<feComposite in2="hardAlpha" operator="arithmetic" k2="-1" k3="1"/>
<feColorMatrix type="matrix" values="0 0 0 0 0.960784 0 0 0 0 0.690196 0 0 0 0 0.00784314 0 0 0 1 0"/>
<feBlend mode="normal" in2="shape" result="effect1_innerShadow_120_940"/>
</filter>
</defs>
</svg>
