<svg width="37" height="32" viewBox="0 0 37 32" fill="none" xmlns="http://www.w3.org/2000/svg">
<g filter="url(#filter0_d_80_521)">
<path d="M25.3477 4.02808C25.9378 3.79035 26.4984 3.69365 26.9287 3.79858L26.9297 3.79663C26.939 3.79872 26.9483 3.80294 26.958 3.80542C26.9621 3.80653 26.9666 3.80623 26.9707 3.80737L26.9697 3.80835C27.2467 3.88316 27.6487 4.11715 27.7344 4.6394C27.7993 5.03564 27.6376 5.39953 27.4395 5.69312L27.3525 5.81421C26.9788 6.31259 26.7624 6.68215 26.6172 6.98511C27.4321 7.46257 28.0455 8.25207 28.2852 9.20679L28.3027 9.25366C28.3245 9.29697 28.3601 9.33236 28.4043 9.35425L28.5742 9.43823L28.8135 9.56812C29.2857 9.84975 29.6717 10.2366 29.9521 10.6863C30.2287 10.853 30.5042 11.0276 30.7812 11.2048L31.415 11.6062C32.0733 12.016 32.8208 12.4495 33.793 12.8914L34.0137 13.0007C34.5301 13.2788 35.0514 13.7193 35.2676 14.3113C35.4031 14.6826 35.4119 15.1086 35.2148 15.5203C35.0391 15.8875 34.7335 16.17 34.3682 16.3884C33.7877 16.873 32.6009 17.3316 31.0283 17.0349C31.0269 17.0378 31.0259 17.0409 31.0244 17.0437L30.8848 17.2878C30.8612 17.3253 30.8565 17.3721 30.8721 17.4128L30.9609 17.6785C31.3224 18.9287 30.9263 20.2791 29.9463 21.1355L29.7275 21.3113L29.625 21.3865C29.5916 21.4111 29.5674 21.4459 29.5566 21.4851L29.5508 21.5261C29.4923 22.9187 28.6087 24.1318 27.3232 24.6238L27.0605 24.7126L26.8369 24.7781C26.7842 24.7936 26.738 24.8251 26.7051 24.8679L26.6768 24.9138L26.6592 24.9509C26.0597 26.2044 24.8101 27.0056 23.4365 27.0408L23.1602 27.0378L22.876 27.0232C22.8243 27.0206 22.7731 27.0339 22.7295 27.0603L22.6885 27.0916L22.5049 27.2595C21.5222 28.1612 20.135 28.4556 18.8799 28.0466L18.6309 27.9558L18.3105 27.825C18.2636 27.8058 18.2121 27.8016 18.1631 27.8113L18.1152 27.825L17.7949 27.9558C16.5597 28.4591 15.1563 28.252 14.1221 27.4314L13.9209 27.2595L13.7373 27.0916C13.6991 27.0565 13.6512 27.0337 13.6006 27.0261L13.5498 27.0232L13.2656 27.0378C11.878 27.1062 10.5784 26.3876 9.89453 25.196L9.7666 24.9509L9.74902 24.9138C9.7253 24.8643 9.68618 24.8243 9.63867 24.7986L9.58887 24.7781L9.36523 24.7126C8.02777 24.3193 7.0639 23.1681 6.89746 21.8015L6.875 21.5261C6.87326 21.4847 6.85751 21.4456 6.83105 21.4148L6.80078 21.3865L6.69824 21.3113C5.48412 20.4167 5.01615 18.8218 5.55371 17.4128L5.5625 17.3494L5.54102 17.2878C5.48563 17.1998 5.43511 17.1097 5.38867 17.0183C3.77274 17.3479 2.55294 16.8812 1.96289 16.3875C1.59847 16.1691 1.29358 15.8868 1.11816 15.5203C0.921195 15.1087 0.929905 14.6826 1.06543 14.3113C1.31253 13.6346 1.9584 13.1558 2.54004 12.8914L3.04395 12.655C4.17932 12.1067 5.04661 11.5756 5.8291 11.0964L6.45215 10.7195C6.77921 10.1812 7.25761 9.73097 7.85156 9.43823L8.02148 9.35425L8.0625 9.32788C8.10046 9.29739 8.12759 9.25487 8.13965 9.20679L8.2041 8.98413C8.46848 8.15924 9.01694 7.47326 9.72949 7.03101C9.61504 6.78551 9.45539 6.4964 9.2002 6.12866L8.97266 5.81421C8.73891 5.50247 8.51661 5.09219 8.59082 4.6394C8.67643 4.11777 9.07752 3.88345 9.35449 3.80835V3.80737C9.35825 3.80632 9.36243 3.80644 9.36621 3.80542C9.37622 3.80284 9.38587 3.7988 9.39551 3.79663V3.79956C9.82942 3.69328 10.3965 3.79221 10.9951 4.03589C11.5409 4.25809 12.1925 4.6313 12.9404 5.21655C13.6992 4.81078 14.592 4.67455 15.4658 4.86694L15.7939 4.93921L15.8438 4.94507C15.8939 4.94615 15.9433 4.93209 15.9863 4.90503L16.2539 4.73706L16.4824 4.60522C17.6406 3.98723 19.0495 4.03075 20.1719 4.73706L20.4385 4.90503L20.4844 4.92847C20.531 4.94625 20.5824 4.95009 20.6318 4.93921L20.96 4.86694L21.1602 4.82886C21.9462 4.7008 22.7377 4.83404 23.4248 5.1853C24.1638 4.61186 24.8079 4.24556 25.3477 4.02808Z" fill="#D9D9D9" stroke="white" stroke-width="1.6" stroke-linecap="round" stroke-linejoin="round"/>
<path d="M13.1114 6.40199C11.1924 4.68594 9.95127 4.47051 9.57056 4.57731C9.40834 4.61374 9.21133 4.79926 9.61282 5.3346C10.5236 6.54903 10.6086 7.11313 10.8421 7.67839C11.2724 7.60304 12.3288 7.24228 13.1114 6.40199Z" fill="#F7C894"/>
<path d="M23.2138 6.40199C25.1328 4.68594 26.3739 4.47051 26.7546 4.57731C26.9169 4.61374 27.1139 4.79926 26.7124 5.3346C25.8016 6.54903 25.7166 7.11313 25.4831 7.67839C25.0528 7.60304 23.9964 7.24228 23.2138 6.40199Z" fill="#F7C894"/>
<path d="M30.2881 16C32.1926 16.7054 33.4916 16.1176 33.9031 15.7355C32.704 15.9471 30.4057 14.7069 29.4064 14.0603L29.2766 15.5592C29.4236 15.6474 29.7175 15.7887 30.2881 16Z" fill="#F2AABE"/>
<path d="M33.4618 13.6194C31.522 12.7377 30.4346 11.8854 29.3178 11.2388L27.8189 12.914C29.3766 14.119 32.4037 16.0881 33.9026 15.7355C35.137 15.0411 34.45 14.0685 33.4618 13.6194Z" fill="#FAF9F7"/>
<path d="M6.0454 16C4.14092 16.7054 2.84188 16.1176 2.43042 15.7355C3.62954 15.9471 5.92784 14.7069 6.9271 14.0603L7.05686 15.5592C6.90991 15.6474 6.61601 15.7887 6.0454 16Z" fill="#F2AABE"/>
<path d="M2.87123 13.6194C4.81097 12.7377 6.02816 11.8854 7.14499 11.2388L8.51412 12.914C6.95645 14.119 3.92928 16.0881 2.43037 15.7355C1.196 15.0411 1.88305 14.0685 2.87123 13.6194Z" fill="#FAF9F7"/>
<path d="M16.6799 5.41445C17.6168 4.82482 18.8088 4.82482 19.7457 5.41445L20.0127 5.58252C20.2481 5.73064 20.5323 5.78015 20.8039 5.72034L21.1316 5.64816C22.2366 5.40481 23.3816 5.8315 24.0578 6.7386L24.1498 6.86192C24.3234 7.09486 24.5853 7.24614 24.8738 7.28026L25.1318 7.31076C26.2816 7.44668 27.2278 8.27885 27.5096 9.40184C27.5828 9.69389 27.7807 9.93897 28.0508 10.0721L28.2207 10.1558C29.2444 10.6603 29.8177 11.7748 29.633 12.901C29.5852 13.1929 29.6756 13.4906 29.8777 13.7066L29.9098 13.7409C30.7065 14.5922 30.8282 15.8749 30.2072 16.8617C30.0498 17.1118 30.019 17.4216 30.1244 17.6976C30.534 18.7708 30.1774 19.9854 29.2526 20.6668L29.15 20.7424C28.9103 20.919 28.7636 21.1948 28.7511 21.4923C28.7031 22.6357 27.9326 23.6217 26.8347 23.9447L26.6112 24.0104C26.3232 24.0951 26.0848 24.2982 25.9553 24.569L25.9376 24.6059C25.4373 25.652 24.358 26.2957 23.1997 26.2386L22.9151 26.2246C22.6325 26.2107 22.3561 26.3105 22.1477 26.5018L21.9642 26.6702C21.144 27.4229 19.9632 27.635 18.9323 27.2149L18.6121 27.0844C18.3561 26.98 18.0695 26.98 17.8135 27.0844L17.4932 27.2149C16.4623 27.635 15.2815 27.4229 14.4613 26.6702L14.2779 26.5018C14.0694 26.3105 13.793 26.2107 13.5104 26.2246L13.2258 26.2386C12.0676 26.2957 10.9882 25.652 10.4879 24.6059L10.4703 24.569C10.3408 24.2982 10.1023 24.0951 9.81434 24.0104L9.59084 23.9447C8.49294 23.6217 7.72241 22.6357 7.67443 21.4923C7.66195 21.1948 7.51523 20.919 7.27549 20.7424L7.17295 20.6668C6.24815 19.9854 5.89152 18.7708 6.30115 17.6976C6.40651 17.4216 6.37573 17.1118 6.21835 16.8617C5.59731 15.8749 5.71901 14.5922 6.51571 13.7409L6.54784 13.7066C6.74999 13.4906 6.84038 13.1929 6.7925 12.901C6.6078 11.7748 7.18119 10.6603 8.20482 10.1558L8.37473 10.0721C8.6448 9.93897 8.84272 9.69388 8.91598 9.40184C9.1977 8.27885 10.1439 7.44668 11.2937 7.31076L11.5517 7.28026C11.8403 7.24614 12.1021 7.09486 12.2758 6.86191L12.3677 6.7386C13.0439 5.8315 14.189 5.40481 15.2939 5.64816L15.6217 5.72034C15.8933 5.78015 16.1775 5.73064 16.4128 5.58252L16.6799 5.41445Z" fill="#FAF9F7"/>
<circle cx="13.8041" cy="14.8538" r="1.05804" fill="#333333"/>
<circle cx="22.6213" cy="14.8538" r="1.05804" fill="#333333"/>
<ellipse cx="11.5119" cy="16.8816" rx="1.7634" ry="1.32255" fill="#F2AABE"/>
<ellipse cx="24.9136" cy="16.8816" rx="1.7634" ry="1.32255" fill="#F2AABE"/>
<path d="M16.0967 18.2926C16.3612 18.5571 17.3311 19.0862 18.2128 18.2045C19.0945 19.0862 20.0643 18.5571 20.3289 18.2926" stroke="#333333" stroke-width="0.529021" stroke-linecap="round" stroke-linejoin="round"/>
<path d="M17.4193 16.5291C17.8602 16.97 18.2129 16.97 18.2129 16.97C18.2129 16.97 18.5655 16.97 19.0064 16.5291C19.1746 16.3609 19.3101 16.1799 19.4134 16.0203C19.5496 15.8099 19.389 15.5592 19.1383 15.5592L18.2129 15.5592L17.2874 15.5592C17.0367 15.5592 16.8761 15.8099 17.0123 16.0203C17.1156 16.1799 17.2511 16.3609 17.4193 16.5291Z" fill="#333333"/>
</g>
<defs>
<filter id="filter0_d_80_521" x="0.166748" y="0" width="35.9998" height="32" filterUnits="userSpaceOnUse" color-interpolation-filters="sRGB">
<feFlood flood-opacity="0" result="BackgroundImageFix"/>
<feColorMatrix in="SourceAlpha" type="matrix" values="0 0 0 0 0 0 0 0 0 0 0 0 0 0 0 0 0 0 127 0" result="hardAlpha"/>
<feOffset/>
<feComposite in2="hardAlpha" operator="out"/>
<feColorMatrix type="matrix" values="0 0 0 0 1 0 0 0 0 1 0 0 0 0 1 0 0 0 1 0"/>
<feBlend mode="normal" in2="BackgroundImageFix" result="effect1_dropShadow_80_521"/>
<feBlend mode="normal" in="SourceGraphic" in2="effect1_dropShadow_80_521" result="shape"/>
</filter>
</defs>
</svg>
