<svg width="33" height="32" viewBox="0 0 33 32" fill="none" xmlns="http://www.w3.org/2000/svg">
<g clip-path="url(#clip0_80_634)" filter="url(#filter0_d_80_634)">
<path d="M22.3584 3.3584C22.8263 3.11595 23.2516 3.29722 23.4766 3.47363L23.4785 3.47168C23.4839 3.47585 23.4878 3.48204 23.4932 3.48633C23.4987 3.49084 23.5055 3.49356 23.5107 3.49805L23.5088 3.5C23.8593 3.78914 24.1224 4.31754 24.2832 4.96387C24.4363 5.579 24.522 6.39374 24.4736 7.44336C24.5116 7.46779 24.5492 7.49279 24.5869 7.51758C24.8232 7.52503 25.0645 7.53349 25.3096 7.54395L26.1123 7.57617C26.9455 7.60295 27.8802 7.60706 29.0059 7.5166L29.249 7.50586C29.8296 7.49823 30.4938 7.62838 30.9668 8.03809C31.2636 8.29523 31.4775 8.66146 31.5049 9.11426C31.5293 9.51855 31.3983 9.9112 31.1865 10.2764C30.9317 10.9334 30.2044 11.8238 28.873 12.3418C29.5656 13.7804 29.9521 15.3708 29.9521 17.0439C29.9521 23.6189 24.057 28.8096 16.9678 28.8096C9.87872 28.8093 3.98438 23.6187 3.98438 17.0439C3.98442 15.3826 4.3654 13.8027 5.04883 12.3721C3.6673 11.8589 2.91581 10.9462 2.65625 10.2764C2.44464 9.91135 2.31538 9.51834 2.33984 9.11426C2.36727 8.66146 2.58108 8.29521 2.87793 8.03809C3.41842 7.57016 4.20813 7.46601 4.83789 7.5166L5.38574 7.55469C6.62743 7.62546 7.62948 7.58353 8.53418 7.54492L9.35156 7.51562C9.4026 7.48208 9.45329 7.44792 9.50488 7.41504C9.45915 6.3752 9.54643 5.56751 9.69922 4.95703C9.85998 4.31476 10.1214 3.78838 10.4707 3.5L10.4697 3.49805C10.4748 3.49372 10.481 3.49068 10.4863 3.48633C10.4919 3.48189 10.4963 3.476 10.502 3.47168L10.5029 3.47363C10.7278 3.29707 11.1538 3.11567 11.6221 3.3584C12.0282 3.56895 12.2232 3.99063 12.332 4.36035L12.4463 4.72559C12.6245 5.2575 12.7923 5.59277 12.9482 5.85449C14.2153 5.48113 15.5664 5.27934 16.9678 5.2793C18.383 5.2793 19.7475 5.4848 21.0254 5.86523C21.2161 5.54697 21.4245 5.12079 21.6484 4.36035L21.6934 4.21973C21.8091 3.88836 22.0029 3.54267 22.3584 3.3584Z" stroke="black" stroke-width="1.6"/>
<path d="M10.3445 7.98394C10.1193 5.45303 10.6814 4.34397 10.9906 4.1058C11.1151 3.99897 11.3782 3.9526 11.5647 4.58617C11.988 6.02345 12.3841 6.42362 12.6936 6.9419C12.38 7.23791 11.4711 7.86074 10.3445 7.98394Z" fill="#F7C894"/>
<path d="M23.6362 7.98394C23.8614 5.45303 23.2993 4.34397 22.9902 4.1058C22.8656 3.99897 22.6026 3.9526 22.416 4.58617C21.9927 6.02345 21.5966 6.42362 21.2872 6.9419C21.6008 7.23791 22.5096 7.86074 23.6362 7.98394Z" fill="#F7C894"/>
<path d="M6.37255 11.8895C4.39116 11.5857 3.55178 10.4561 3.37977 9.92927C4.31315 10.6864 6.89066 10.7172 8.06274 10.638L7.45659 11.9936C7.28754 11.9993 6.9662 11.9805 6.37255 11.8895Z" fill="#F2AABE"/>
<path d="M4.7741 8.31449C6.87041 8.48297 8.32912 8.33064 9.60265 8.30775L9.98152 10.4093C8.06002 10.7029 4.50434 10.9518 3.37985 9.92934C2.64732 8.73877 3.70617 8.22866 4.7741 8.31449Z" fill="#FAF9F7"/>
<path d="M27.4719 11.8895C29.4533 11.5857 30.2927 10.4561 30.4647 9.92927C29.5313 10.6864 26.9538 10.7172 25.7817 10.638L26.3879 11.9936C26.5569 11.9993 26.8783 11.9805 27.4719 11.8895Z" fill="#F2AABE"/>
<path d="M29.0704 8.31449C26.9741 8.48297 25.5154 8.33064 24.2418 8.30775L23.863 10.4093C25.7845 10.7029 29.3401 10.9518 30.4646 9.92934C31.1972 8.73877 30.1383 8.22866 29.0704 8.31449Z" fill="black"/>
<ellipse cx="16.9685" cy="17.0442" rx="12.1836" ry="10.9652" fill="#FAF9F7"/>
<mask id="mask0_80_634" style="mask-type:alpha" maskUnits="userSpaceOnUse" x="4" y="6" width="26" height="23">
<ellipse cx="16.9685" cy="17.0442" rx="12.1836" ry="10.9652" fill="#FAF9F7"/>
</mask>
<g mask="url(#mask0_80_634)">
<ellipse cx="16.9685" cy="17.0442" rx="12.1836" ry="10.9652" fill="#FAF9F7"/>
<path fill-rule="evenodd" clip-rule="evenodd" d="M19.0573 12.4184C20.1494 13.5686 22.1852 12.4995 23.7021 12.9914C25.0646 13.4332 25.8761 15.1751 27.3137 15.0956C28.7834 15.0144 29.9712 13.7869 30.8411 12.5967C31.6714 11.4606 32.143 10.0546 32.0121 8.66706C31.8921 7.39476 30.9709 6.41477 30.1647 5.42773C29.4569 4.5612 28.6712 3.79232 27.6492 3.32562C26.5781 2.8365 25.3643 2.32746 24.2434 2.72374C23.1446 3.11225 22.8691 4.50789 22.0267 5.31351C21.0183 6.27776 19.3858 6.5996 18.8501 7.88133C18.2479 9.32216 17.9919 11.2963 19.0573 12.4184Z" fill="black"/>
<path fill-rule="evenodd" clip-rule="evenodd" d="M5.49177 10.9524C6.39201 10.9545 6.67956 12.1657 7.31133 12.8073C7.93367 13.4392 8.9691 13.7517 9.11091 14.6274C9.26333 15.5686 8.70417 16.4927 8.01477 17.1512C7.34063 17.7951 6.42357 18.0599 5.49177 18.0843C4.53035 18.1094 3.42647 18.0439 2.83335 17.2866C2.26514 16.5611 2.61667 15.5336 2.78438 14.6274C2.91233 13.936 3.24684 13.3649 3.66384 12.7989C4.19789 12.074 4.59156 10.9503 5.49177 10.9524Z" fill="black"/>
</g>
<circle cx="12.6173" cy="15.6519" r="1.04431" fill="#333333"/>
<circle cx="21.3197" cy="15.6519" r="1.04431" fill="#333333"/>
<ellipse cx="16.9687" cy="18.9589" rx="4.52533" ry="2.95887" fill="#E88BAA"/>
<ellipse cx="18.5348" cy="18.9589" rx="0.522153" ry="0.870255" fill="#F8BFD0"/>
<ellipse cx="15.402" cy="18.9589" rx="0.522153" ry="0.870255" fill="#F8BFD0"/>
<ellipse cx="10.3545" cy="17.6534" rx="1.74051" ry="1.30538" fill="#F2AABE"/>
<ellipse cx="23.5826" cy="17.6534" rx="1.74051" ry="1.30538" fill="#F2AABE"/>
</g>
<defs>
<filter id="filter0_d_80_634" x="0.922119" y="0" width="32" height="32" filterUnits="userSpaceOnUse" color-interpolation-filters="sRGB">
<feFlood flood-opacity="0" result="BackgroundImageFix"/>
<feColorMatrix in="SourceAlpha" type="matrix" values="0 0 0 0 0 0 0 0 0 0 0 0 0 0 0 0 0 0 127 0" result="hardAlpha"/>
<feOffset/>
<feComposite in2="hardAlpha" operator="out"/>
<feColorMatrix type="matrix" values="0 0 0 0 1 0 0 0 0 1 0 0 0 0 1 0 0 0 1 0"/>
<feBlend mode="normal" in2="BackgroundImageFix" result="effect1_dropShadow_80_634"/>
<feBlend mode="normal" in="SourceGraphic" in2="effect1_dropShadow_80_634" result="shape"/>
</filter>
<clipPath id="clip0_80_634">
<rect width="32" height="32" fill="white" transform="translate(0.922119)"/>
</clipPath>
</defs>
</svg>
