<svg width="33" height="32" viewBox="0 0 33 32" fill="none" xmlns="http://www.w3.org/2000/svg">
<g filter="url(#filter0_d_80_463)">
<path d="M25.7446 4.17395C25.8143 4.30098 26.586 5.73266 26.6284 7.43762L26.6313 7.7218C26.6271 8.63172 26.4933 9.37711 26.3813 9.84778C28.5075 11.9355 29.8236 14.7356 29.8237 17.8282C29.8237 24.4066 23.9266 29.5997 16.8335 29.5997C9.74045 29.5997 3.84326 24.4066 3.84326 17.8282C3.84336 14.7241 5.16811 11.9135 7.30811 9.82336C7.18604 9.30276 7.04248 8.46011 7.06787 7.43762L7.0835 7.12122C7.20354 5.55871 7.88632 4.29303 7.95166 4.17395L8.20947 3.70422L8.74268 3.76379C8.88666 3.78006 10.5017 3.9747 11.9194 4.92297L12.3228 5.20813C12.9128 5.64819 13.3571 6.08596 13.6548 6.41223C14.673 6.18025 15.738 6.05676 16.8335 6.05676C17.9371 6.05676 19.0097 6.18277 20.0347 6.41809C20.3964 6.02079 20.9787 5.45684 21.7769 4.92297L22.0444 4.75403C23.3906 3.95112 24.8186 3.77905 24.9536 3.76379L25.4868 3.70422L25.7446 4.17395Z" stroke="white" stroke-width="1.6"/>
<path d="M8.9009 5.03763C9.34372 5.12012 10.2043 5.33048 11.0122 5.81097L11.2326 5.94972C11.853 6.36467 12.3234 6.79992 12.6375 7.12995C12.687 7.18198 12.7313 7.23249 12.7728 7.27866L8.50023 9.49337C8.48646 9.4327 8.47162 9.36712 8.45762 9.29657C8.38005 8.90568 8.30545 8.37081 8.30045 7.74349L8.303 7.46828C8.32895 6.42582 8.69585 5.48456 8.9009 5.03763Z" fill="#FDE1B1" stroke="#FDBB4B" stroke-width="0.870747"/>
<path d="M24.7951 5.03763C24.3523 5.12012 23.4917 5.33048 22.6838 5.81097L22.4634 5.94972C21.8431 6.36467 21.3726 6.79992 21.0586 7.12995C21.0091 7.18198 20.9648 7.23249 20.9232 7.27866L25.1958 9.49337C25.2096 9.4327 25.2244 9.36712 25.2384 9.29657C25.316 8.90568 25.3906 8.37081 25.3956 7.74349L25.393 7.46828C25.3671 6.42582 25.0002 5.48456 24.7951 5.03763Z" fill="#FDE1B1" stroke="#FDBB4B" stroke-width="0.870747"/>
<mask id="mask0_80_463" style="mask-type:alpha" maskUnits="userSpaceOnUse" x="4" y="6" width="26" height="23">
<ellipse cx="16.8335" cy="17.8286" rx="12.1905" ry="10.9714" fill="#FDBB4B"/>
</mask>
<g mask="url(#mask0_80_463)">
<ellipse cx="16.8335" cy="17.8286" rx="12.1905" ry="10.9714" fill="#FDBB4B"/>
<ellipse cx="16.8331" cy="29.4966" rx="13.4095" ry="11.668" fill="#FAF9F7"/>
</g>
<circle cx="12.4795" cy="16.4354" r="1.0449" fill="#333333"/>
<circle cx="21.187" cy="16.4354" r="1.0449" fill="#333333"/>
<ellipse cx="10.2154" cy="18.4382" rx="1.74149" ry="1.30612" fill="#F2AABE"/>
<ellipse cx="23.451" cy="18.4382" rx="1.74149" ry="1.30612" fill="#F2AABE"/>
<path d="M14.7432 19.8313C15.0044 20.0926 15.9622 20.615 16.833 19.7443C17.7037 20.615 18.6615 20.0926 18.9227 19.8313" stroke="#333333" stroke-width="0.522448" stroke-linecap="round" stroke-linejoin="round"/>
<path d="M16.0495 18.0898C16.4848 18.5251 16.8331 18.5251 16.8331 18.5251C16.8331 18.5251 17.1814 18.5251 17.6168 18.0898C17.7829 17.9237 17.9167 17.7449 18.0187 17.5873C18.1533 17.3795 17.9947 17.132 17.7471 17.132L16.8331 17.132L15.9192 17.132C15.6716 17.132 15.513 17.3795 15.6475 17.5873C15.7495 17.7449 15.8834 17.9237 16.0495 18.0898Z" fill="#333333"/>
</g>
<defs>
<filter id="filter0_d_80_463" x="0.833252" y="0" width="32" height="32" filterUnits="userSpaceOnUse" color-interpolation-filters="sRGB">
<feFlood flood-opacity="0" result="BackgroundImageFix"/>
<feColorMatrix in="SourceAlpha" type="matrix" values="0 0 0 0 0 0 0 0 0 0 0 0 0 0 0 0 0 0 127 0" result="hardAlpha"/>
<feOffset/>
<feComposite in2="hardAlpha" operator="out"/>
<feColorMatrix type="matrix" values="0 0 0 0 1 0 0 0 0 1 0 0 0 0 1 0 0 0 1 0"/>
<feBlend mode="normal" in2="BackgroundImageFix" result="effect1_dropShadow_80_463"/>
<feBlend mode="normal" in="SourceGraphic" in2="effect1_dropShadow_80_463" result="shape"/>
</filter>
</defs>
</svg>
