<svg width="33" height="32" viewBox="0 0 33 32" fill="none" xmlns="http://www.w3.org/2000/svg">
<g filter="url(#filter0_d_80_478)">
<path d="M25.3303 3.55725C25.6082 3.56781 25.8646 3.72253 26.0012 3.97131C26.0719 4.10011 26.8557 5.55497 26.8987 7.28674L26.8997 7.73694C26.8934 8.03448 26.873 8.31278 26.8459 8.56799C27.7774 9.79352 28.4761 11.202 28.8772 12.7301C29.6918 14.2836 30.1506 16.0234 30.1506 17.861C30.1506 24.5465 24.1567 29.8267 16.9446 29.8268C9.73243 29.8268 3.73858 24.5465 3.73853 17.861C3.73853 14.7032 5.08802 11.8448 7.26685 9.71936C7.1424 9.1912 6.99383 8.33161 7.01978 7.28674L7.03638 6.96545C7.15823 5.37827 7.85196 4.09206 7.91821 3.97131L7.98364 3.87073C8.15248 3.6497 8.42711 3.52928 8.70923 3.56116C8.85616 3.57777 10.4964 3.77611 11.9358 4.73889L12.2581 4.9635C12.3263 5.01324 12.3917 5.0643 12.4563 5.11389C12.871 4.73495 13.3432 4.45944 13.8069 4.32092V4.31995C14.4603 4.1018 15.7187 3.80563 17.0452 3.77307C17.0703 3.77068 17.0956 3.7682 17.1213 3.76819C17.152 3.76819 17.1835 3.76894 17.2141 3.76917L17.2131 3.77014C17.5033 3.76804 17.799 3.77755 18.094 3.80627L18.093 3.80725C19.4564 3.91368 20.7568 4.24236 21.9573 4.75647C21.966 4.75059 21.9749 4.74476 21.9836 4.73889L22.2551 4.56702C23.6224 3.75156 25.0733 3.57662 25.2102 3.56116L25.3303 3.55725Z" stroke="white" stroke-width="1.6" stroke-linecap="round" stroke-linejoin="round"/>
<path d="M28.4648 15.7343C28.4648 21.9008 23.3865 26.8998 17.1221 26.8998C17.1221 23.621 17.1221 22.6984 17.1221 16.5318C17.1221 10.3652 17.1221 9.17673 17.1221 4.56873C23.3865 4.56873 28.4648 9.56771 28.4648 15.7343Z" fill="#45301C"/>
<path d="M8.87127 4.84402C9.3219 4.92795 10.198 5.14167 11.0203 5.63079L11.2443 5.7721C11.8756 6.1944 12.3547 6.63749 12.6743 6.97336C12.7248 7.02645 12.77 7.078 12.8124 7.12509L8.46433 9.3789C8.45029 9.31711 8.43418 9.25051 8.41991 9.17863C8.34097 8.78078 8.26522 8.23573 8.26016 7.5972L8.26263 7.31763C8.28898 6.25688 8.66254 5.29903 8.87127 4.84402Z" fill="#D1B186" stroke="#A36C39" stroke-width="0.886154"/>
<path d="M25.0479 4.84402C24.5973 4.92795 23.7212 5.14167 22.8989 5.63079L22.6749 5.7721C22.0436 6.1944 21.5645 6.63749 21.2449 6.97336C21.1944 7.02645 21.1492 7.078 21.1068 7.12509L25.4549 9.3789C25.4689 9.31711 25.485 9.25051 25.4993 9.17863C25.5782 8.78078 25.654 8.23573 25.659 7.5972L25.6566 7.31763C25.6302 6.25688 25.2566 5.29903 25.0479 4.84402Z" fill="#D1B186" stroke="#A36C39" stroke-width="0.886154"/>
<mask id="mask0_80_478" style="mask-type:alpha" maskUnits="userSpaceOnUse" x="4" y="6" width="26" height="24">
<ellipse cx="16.9445" cy="17.861" rx="12.4062" ry="11.1655" fill="#FDBB4B"/>
</mask>
<g mask="url(#mask0_80_478)">
<ellipse cx="16.9445" cy="17.861" rx="12.4062" ry="11.1655" fill="#A36C39"/>
<ellipse cx="16.9449" cy="19.4559" rx="4.608" ry="3.01292" fill="#D1B186"/>
<circle cx="19.0717" cy="19.456" r="0.354462" fill="#333333"/>
<circle cx="14.8181" cy="19.456" r="0.354462" fill="#333333"/>
</g>
<circle cx="12.5138" cy="16.443" r="1.06338" fill="#333333"/>
<circle cx="21.3754" cy="16.443" r="1.06338" fill="#333333"/>
<ellipse cx="10.2098" cy="18.4812" rx="1.77231" ry="1.32923" fill="#F2AABE"/>
<ellipse cx="23.6795" cy="18.4812" rx="1.77231" ry="1.32923" fill="#F2AABE"/>
<path d="M18.8841 4.75291C17.1532 4.30279 14.9467 4.78252 14.0598 5.07865C13.4166 5.26144 12.6564 5.84859 12.247 6.70736C11.867 8.33607 12.8026 9.0764 13.475 9.63904C14.1475 10.2017 15.0831 9.72788 15.3463 8.89872C15.2878 9.78711 15.7556 12.1265 16.9544 12.0081C18.1531 11.8896 18.8841 9.90556 19.0595 9.0764C19.3519 9.46137 20.1121 10.3498 20.9892 9.52059C21.8663 8.69143 21.457 6.97388 21.457 6.82581C21.457 6.67775 21.0477 5.31555 18.8841 4.75291Z" fill="#45301C"/>
</g>
<defs>
<filter id="filter0_d_80_478" x="0.944336" y="0" width="32" height="32" filterUnits="userSpaceOnUse" color-interpolation-filters="sRGB">
<feFlood flood-opacity="0" result="BackgroundImageFix"/>
<feColorMatrix in="SourceAlpha" type="matrix" values="0 0 0 0 0 0 0 0 0 0 0 0 0 0 0 0 0 0 127 0" result="hardAlpha"/>
<feOffset/>
<feComposite in2="hardAlpha" operator="out"/>
<feColorMatrix type="matrix" values="0 0 0 0 1 0 0 0 0 1 0 0 0 0 1 0 0 0 1 0"/>
<feBlend mode="normal" in2="BackgroundImageFix" result="effect1_dropShadow_80_478"/>
<feBlend mode="normal" in="SourceGraphic" in2="effect1_dropShadow_80_478" result="shape"/>
</filter>
</defs>
</svg>
