<svg width="33" height="32" viewBox="0 0 33 32" fill="none" xmlns="http://www.w3.org/2000/svg">
<g clip-path="url(#clip0_80_496)" filter="url(#filter0_d_80_496)">
<path d="M21.4919 3.3584C21.9598 3.11595 22.3851 3.29722 22.6101 3.47363L22.6121 3.47168C22.6175 3.47585 22.6213 3.48204 22.6267 3.48633C22.6322 3.49084 22.6391 3.49356 22.6443 3.49805L22.6423 3.5C22.9929 3.78914 23.2559 4.31754 23.4167 4.96387C23.5698 5.579 23.6556 6.39374 23.6072 7.44336C23.6452 7.46779 23.6828 7.49279 23.7205 7.51758C23.9567 7.52503 24.1981 7.53349 24.4431 7.54395L25.2458 7.57617C26.0791 7.60295 27.0137 7.60706 28.1394 7.5166L28.3826 7.50586C28.9631 7.49823 29.6274 7.62838 30.1003 8.03809C30.3972 8.29523 30.611 8.66146 30.6384 9.11426C30.6629 9.51855 30.5319 9.9112 30.3201 10.2764C30.0652 10.9334 29.3379 11.8238 28.0066 12.3418C28.6992 13.7804 29.0856 15.3708 29.0857 17.0439C29.0857 23.6189 23.1906 28.8096 16.1013 28.8096C9.01227 28.8093 3.11792 23.6187 3.11792 17.0439C3.11797 15.3826 3.49894 13.8027 4.18237 12.3721C2.80085 11.8589 2.04935 10.9462 1.78979 10.2764C1.57818 9.91135 1.44893 9.51834 1.47339 9.11426C1.50082 8.66146 1.71463 8.29521 2.01147 8.03809C2.55196 7.57016 3.34168 7.46601 3.97144 7.5166L4.51929 7.55469C5.76098 7.62546 6.76303 7.58353 7.66772 7.54492L8.48511 7.51562C8.53615 7.48208 8.58684 7.44792 8.63843 7.41504C8.5927 6.3752 8.67998 5.56751 8.83276 4.95703C8.99352 4.31476 9.25497 3.78838 9.60425 3.5L9.60327 3.49805C9.60832 3.49372 9.61457 3.49068 9.61987 3.48633C9.62543 3.48189 9.62989 3.476 9.6355 3.47168L9.63647 3.47363C9.86133 3.29707 10.2873 3.11567 10.7556 3.3584C11.1618 3.56895 11.3567 3.99063 11.4656 4.36035L11.5798 4.72559C11.758 5.2575 11.9258 5.59277 12.0818 5.85449C13.3489 5.48113 14.7 5.27934 16.1013 5.2793C17.5165 5.2793 18.881 5.4848 20.1589 5.86523C20.3497 5.54697 20.558 5.12079 20.782 4.36035L20.8269 4.21973C20.9426 3.88836 21.1365 3.54267 21.4919 3.3584Z" stroke="white" stroke-width="1.6"/>
<path d="M9.47753 7.98394C9.25239 5.45303 9.81445 4.34397 10.1236 4.1058C10.2482 3.99897 10.5112 3.9526 10.6978 4.58617C11.1211 6.02345 11.5172 6.42362 11.8266 6.9419C11.513 7.23791 10.6042 7.86074 9.47753 7.98394Z" fill="#F7C894"/>
<path d="M22.7695 7.98394C22.9947 5.45303 22.4326 4.34397 22.1235 4.1058C21.9989 3.99897 21.7359 3.9526 21.5493 4.58617C21.126 6.02345 20.7299 6.42362 20.4205 6.9419C20.7341 7.23791 21.6429 7.86074 22.7695 7.98394Z" fill="#F7C894"/>
<path d="M5.5056 11.8896C3.52421 11.5858 2.68484 10.4562 2.51282 9.92939C3.4462 10.6865 6.02371 10.7173 7.19579 10.6381L6.58964 11.9938C6.42059 11.9994 6.09926 11.9806 5.5056 11.8896Z" fill="#F2AABE"/>
<path d="M3.9074 8.31449C6.00371 8.48297 7.46242 8.33064 8.73595 8.30775L9.11482 10.4093C7.19333 10.7029 3.63765 10.9518 2.51315 9.92934C1.78062 8.73877 2.83947 8.22866 3.9074 8.31449Z" fill="#FAF9F7"/>
<path d="M26.6052 11.8896C28.5866 11.5858 29.426 10.4562 29.598 9.92939C28.6646 10.6865 26.0871 10.7173 24.915 10.6381L25.5212 11.9938C25.6902 11.9994 26.0116 11.9806 26.6052 11.8896Z" fill="#F2AABE"/>
<path d="M28.2039 8.31449C26.1076 8.48297 24.6489 8.33064 23.3754 8.30775L22.9965 10.4093C24.918 10.7029 28.4737 10.9518 29.5982 9.92934C30.3307 8.73877 29.2719 8.22866 28.2039 8.31449Z" fill="black"/>
<ellipse cx="16.1018" cy="17.0442" rx="12.1836" ry="10.9652" fill="#FAF9F7"/>
<mask id="mask0_80_496" style="mask-type:alpha" maskUnits="userSpaceOnUse" x="3" y="6" width="26" height="23">
<ellipse cx="16.1018" cy="17.0442" rx="12.1836" ry="10.9652" fill="#FAF9F7"/>
</mask>
<g mask="url(#mask0_80_496)">
<ellipse cx="16.1018" cy="17.0442" rx="12.1836" ry="10.9652" fill="#FAF9F7"/>
<path fill-rule="evenodd" clip-rule="evenodd" d="M18.1906 12.4184C19.2827 13.5686 21.3185 12.4995 22.8354 12.9914C24.1979 13.4332 25.0094 15.1751 26.447 15.0956C27.9167 15.0144 29.1045 13.7869 29.9744 12.5967C30.8047 11.4606 31.2763 10.0546 31.1454 8.66706C31.0254 7.39476 30.1042 6.41477 29.298 5.42773C28.5902 4.5612 27.8045 3.79232 26.7825 3.32562C25.7114 2.8365 24.4976 2.32746 23.3767 2.72374C22.2779 3.11225 22.0024 4.50789 21.16 5.31351C20.1516 6.27776 18.5191 6.5996 17.9834 7.88133C17.3812 9.32216 17.1252 11.2963 18.1906 12.4184Z" fill="black"/>
<path fill-rule="evenodd" clip-rule="evenodd" d="M4.62483 10.9525C5.52507 10.9546 5.81262 12.1659 6.44439 12.8074C7.06673 13.4393 8.10216 13.7518 8.24396 14.6275C8.39639 15.5688 7.83723 16.4928 7.14783 17.1513C6.47369 17.7952 5.55663 18.06 4.62483 18.0844C3.66341 18.1095 2.55952 18.0441 1.9664 17.2867C1.39819 16.5612 1.74973 15.5338 1.91744 14.6275C2.04539 13.9361 2.3799 13.3651 2.7969 12.799C3.33095 12.0741 3.72462 10.9505 4.62483 10.9525Z" fill="black"/>
</g>
<circle cx="11.7504" cy="15.6519" r="1.04431" fill="#333333"/>
<circle cx="20.4532" cy="15.6519" r="1.04431" fill="#333333"/>
<ellipse cx="16.1022" cy="18.9589" rx="4.52533" ry="2.95887" fill="#E88BAA"/>
<ellipse cx="17.6681" cy="18.9588" rx="0.522153" ry="0.870255" fill="#F8BFD0"/>
<ellipse cx="14.5353" cy="18.9588" rx="0.522153" ry="0.870255" fill="#F8BFD0"/>
<ellipse cx="9.48758" cy="17.6535" rx="1.74051" ry="1.30538" fill="#F2AABE"/>
<ellipse cx="22.7161" cy="17.6535" rx="1.74051" ry="1.30538" fill="#F2AABE"/>
</g>
<defs>
<filter id="filter0_d_80_496" x="0.0556641" y="0" width="32" height="32" filterUnits="userSpaceOnUse" color-interpolation-filters="sRGB">
<feFlood flood-opacity="0" result="BackgroundImageFix"/>
<feColorMatrix in="SourceAlpha" type="matrix" values="0 0 0 0 0 0 0 0 0 0 0 0 0 0 0 0 0 0 127 0" result="hardAlpha"/>
<feOffset/>
<feComposite in2="hardAlpha" operator="out"/>
<feColorMatrix type="matrix" values="0 0 0 0 1 0 0 0 0 1 0 0 0 0 1 0 0 0 1 0"/>
<feBlend mode="normal" in2="BackgroundImageFix" result="effect1_dropShadow_80_496"/>
<feBlend mode="normal" in="SourceGraphic" in2="effect1_dropShadow_80_496" result="shape"/>
</filter>
<clipPath id="clip0_80_496">
<rect width="32" height="32" fill="white" transform="translate(0.0556641)"/>
</clipPath>
</defs>
</svg>
