<svg width="33" height="32" viewBox="0 0 33 32" fill="none" xmlns="http://www.w3.org/2000/svg">
<g filter="url(#filter0_d_80_601)">
<path d="M25.0332 4.17395C25.1029 4.30098 25.8746 5.73266 25.917 7.43762L25.9199 7.7218C25.9156 8.63172 25.7818 9.37711 25.6699 9.84778C27.796 11.9355 29.1122 14.7356 29.1123 17.8282C29.1123 24.4066 23.2151 29.5997 16.1221 29.5997C9.02902 29.5997 3.13184 24.4066 3.13184 17.8282C3.13194 14.7241 4.45668 11.9135 6.59668 9.82336C6.47462 9.30276 6.33105 8.46011 6.35645 7.43762L6.37207 7.12122C6.49211 5.55871 7.17489 4.29303 7.24023 4.17395L7.49805 3.70422L8.03125 3.76379C8.17523 3.78006 9.79028 3.9747 11.208 4.92297L11.6113 5.20813C12.2014 5.64819 12.6457 6.08596 12.9434 6.41223C13.9615 6.18025 15.0265 6.05676 16.1221 6.05676C17.2257 6.05676 18.2982 6.18277 19.3232 6.41809C19.685 6.02079 20.2673 5.45684 21.0654 4.92297L21.333 4.75403C22.6792 3.95112 24.1072 3.77905 24.2422 3.76379L24.7754 3.70422L25.0332 4.17395Z" stroke="black" stroke-width="1.6"/>
<path d="M8.18947 5.03763C8.6323 5.12012 9.4929 5.33048 10.3008 5.81097L10.5212 5.94972C11.1416 6.36467 11.612 6.79992 11.926 7.12995C11.9755 7.18198 12.0198 7.23249 12.0614 7.27866L7.78881 9.49337C7.77503 9.4327 7.76019 9.36712 7.74619 9.29657C7.66863 8.90568 7.59403 8.37081 7.58903 7.74349L7.59157 7.46828C7.61752 6.42582 7.98442 5.48456 8.18947 5.03763Z" fill="#FDE1B1" stroke="#FDBB4B" stroke-width="0.870747"/>
<path d="M24.084 5.03763C23.6411 5.12012 22.7805 5.33048 21.9727 5.81097L21.7523 5.94972C21.1319 6.36467 20.6614 6.79992 20.3474 7.12995C20.2979 7.18198 20.2536 7.23249 20.212 7.27866L24.4846 9.49337C24.4984 9.4327 24.5132 9.36712 24.5272 9.29657C24.6048 8.90568 24.6794 8.37081 24.6844 7.74349L24.6819 7.46828C24.6559 6.42582 24.289 5.48456 24.084 5.03763Z" fill="#FDE1B1" stroke="#FDBB4B" stroke-width="0.870747"/>
<mask id="mask0_80_601" style="mask-type:alpha" maskUnits="userSpaceOnUse" x="3" y="6" width="26" height="23">
<ellipse cx="16.1221" cy="17.8286" rx="12.1905" ry="10.9714" fill="#FDBB4B"/>
</mask>
<g mask="url(#mask0_80_601)">
<ellipse cx="16.1221" cy="17.8286" rx="12.1905" ry="10.9714" fill="#FDBB4B"/>
<ellipse cx="16.1219" cy="29.4966" rx="13.4095" ry="11.668" fill="#FAF9F7"/>
</g>
<circle cx="11.7683" cy="16.4354" r="1.0449" fill="#333333"/>
<circle cx="20.4758" cy="16.4354" r="1.0449" fill="#333333"/>
<ellipse cx="9.50419" cy="18.4382" rx="1.74149" ry="1.30612" fill="#F2AABE"/>
<ellipse cx="22.7395" cy="18.4382" rx="1.74149" ry="1.30612" fill="#F2AABE"/>
<path d="M14.0322 19.8313C14.2935 20.0926 15.2513 20.615 16.122 19.7443C16.9928 20.615 17.9506 20.0926 18.2118 19.8313" stroke="#333333" stroke-width="0.522448" stroke-linecap="round" stroke-linejoin="round"/>
<path d="M15.3383 18.0898C15.7737 18.5251 16.1219 18.5251 16.122 18.5251C16.122 18.5251 16.4702 18.5251 16.9056 18.0898C17.0717 17.9237 17.2055 17.7449 17.3076 17.5873C17.4421 17.3795 17.2835 17.132 17.0359 17.132L16.122 17.132L15.208 17.132C14.9604 17.132 14.8018 17.3795 14.9363 17.5873C15.0383 17.7449 15.1722 17.9237 15.3383 18.0898Z" fill="#333333"/>
</g>
<defs>
<filter id="filter0_d_80_601" x="0.12207" y="0" width="32" height="32" filterUnits="userSpaceOnUse" color-interpolation-filters="sRGB">
<feFlood flood-opacity="0" result="BackgroundImageFix"/>
<feColorMatrix in="SourceAlpha" type="matrix" values="0 0 0 0 0 0 0 0 0 0 0 0 0 0 0 0 0 0 127 0" result="hardAlpha"/>
<feOffset/>
<feComposite in2="hardAlpha" operator="out"/>
<feColorMatrix type="matrix" values="0 0 0 0 1 0 0 0 0 1 0 0 0 0 1 0 0 0 1 0"/>
<feBlend mode="normal" in2="BackgroundImageFix" result="effect1_dropShadow_80_601"/>
<feBlend mode="normal" in="SourceGraphic" in2="effect1_dropShadow_80_601" result="shape"/>
</filter>
</defs>
</svg>
