<svg width="33" height="32" viewBox="0 0 33 32" fill="none" xmlns="http://www.w3.org/2000/svg">
<g filter="url(#filter0_d_80_678)">
<path d="M20.0257 2.37135C20.7187 0.688874 22.6557 0.0956225 24.2142 0.545177H24.2151L24.5228 0.648693C25.9837 1.2164 27.1415 2.73487 26.7562 4.47096C27.0226 5.09744 27.106 5.82489 26.8939 6.55983V6.5608C26.8603 6.67689 26.8177 6.7887 26.7718 6.89772C26.9442 7.41615 26.9927 7.99103 26.8587 8.5735L26.8157 8.73854C26.7588 8.93551 26.6802 9.11988 26.5892 9.2942C26.9883 9.74494 27.298 10.2795 27.4866 10.8733C29.0102 11.6537 29.8974 13.2762 29.7493 14.9651C30.8165 16.2595 30.9996 18.0682 30.221 19.5481C30.698 21.1623 30.1502 22.9123 28.8255 23.968C28.6481 25.5541 27.5999 26.91 26.1116 27.4797L25.7884 27.5891H25.7864C25.0255 29.0074 23.5647 29.9075 21.9622 29.9485L21.6263 29.9446L21.5687 29.9407L21.553 29.9563C20.3573 31.0536 18.6683 31.412 17.1409 30.9143L16.8372 30.803L16.722 30.7561L16.6077 30.803C15.1048 31.4155 13.3966 31.1645 12.138 30.1663L11.8929 29.9563L11.8763 29.9407L11.8187 29.9446C10.0869 30.0299 8.47123 29.1062 7.65752 27.5891H7.65655C5.99795 27.1013 4.80808 25.6662 4.61846 23.9671C3.29441 22.9112 2.747 21.162 3.22393 19.5481C2.44528 18.0682 2.6284 16.2595 3.69561 14.9651C3.54752 13.2765 4.43421 11.6539 5.95733 10.8733C6.15409 10.2538 6.48188 9.69811 6.90655 9.23561C6.86239 9.14654 6.82093 9.0552 6.78545 8.96022L6.71221 8.73854C6.52793 8.10022 6.56753 7.46493 6.75615 6.89772C6.74354 6.86776 6.72882 6.83837 6.71709 6.80787L6.63408 6.5608V6.55983C6.42197 5.82489 6.50528 5.09745 6.77178 4.47096C6.35977 2.61462 7.71219 1.00766 9.3128 0.545177H9.31377L9.6292 0.469005C11.1242 0.179107 12.8543 0.801016 13.5013 2.37135C14.1805 2.71545 14.7677 3.29395 15.0608 4.09205L15.1302 4.30201V4.30299L15.1702 4.45826C15.2749 4.90784 15.2683 5.35295 15.1819 5.77174C16.2062 5.39614 17.3359 5.40838 18.3538 5.8069C18.25 5.32987 18.2494 4.81752 18.3978 4.30299V4.30201L18.4671 4.09205C18.7601 3.29427 19.3468 2.71551 20.0257 2.37135ZM17.8997 7.34986C17.1776 7.0257 16.3536 7.01521 15.6243 7.31666C15.6562 7.67701 15.6235 8.03018 15.5384 8.36451C15.6845 8.57332 15.8089 8.80215 15.9017 9.05104L15.9739 9.27174L16.0208 9.45338C16.4465 11.3185 15.0884 12.9341 13.4827 13.3977V13.3987C12.8147 13.5914 12.1243 13.5924 11.4876 13.4231L11.4749 13.428C9.96184 13.8647 8.08983 13.3184 7.34795 11.7454C7.24827 11.9376 7.09068 12.0961 6.89287 12.1936L6.72295 12.2766L6.53643 12.3782C5.63152 12.9199 5.13899 13.965 5.31182 15.0198C5.35962 15.3113 5.26933 15.6087 5.06768 15.8245L5.03545 15.8587L4.89385 16.0237C4.2271 16.8689 4.15711 18.0526 4.73858 18.9768C4.89577 19.2266 4.92576 19.537 4.82061 19.8128L4.75323 20.0149C4.45846 21.0343 4.82544 22.1413 5.6917 22.7796L5.79424 22.8547C6.03366 23.0311 6.18008 23.3067 6.19268 23.6038C6.24061 24.7461 7.01087 25.7312 8.10772 26.054L8.33135 26.1204C8.61889 26.2051 8.85726 26.4076 8.98662 26.678L9.0042 26.7151C9.47287 27.6949 10.45 28.3214 11.5237 28.3489L11.7396 28.346L12.0237 28.3323C12.306 28.3184 12.5831 28.4185 12.7913 28.6096L12.9739 28.7776C13.7423 29.4827 14.8275 29.7127 15.8089 29.3928L16.0032 29.3215L16.3235 29.1917C16.5792 29.0875 16.8657 29.0875 17.1214 29.1917L17.4417 29.3215C18.4072 29.7149 19.5042 29.5536 20.3128 28.9124L20.471 28.7776L20.6536 28.6096C20.8619 28.4186 21.1389 28.3184 21.4212 28.3323L21.7054 28.346C22.79 28.3993 23.8055 27.8379 24.3401 26.9065L24.4407 26.7151L24.4583 26.678C24.5877 26.4076 24.8261 26.205 25.1136 26.1204L25.3372 26.054C26.434 25.7312 27.2043 24.7461 27.2522 23.6038C27.2649 23.3067 27.4113 23.0311 27.6507 22.8547L27.7532 22.7796C28.6194 22.1413 28.9865 21.0342 28.6917 20.0149L28.6243 19.8128C28.5191 19.537 28.5491 19.2266 28.7064 18.9768C29.2877 18.0526 29.2178 16.8688 28.5511 16.0237L28.4095 15.8587L28.3772 15.8245C28.1755 15.6087 28.0853 15.3113 28.1331 15.0198C28.3059 13.965 27.8134 12.9199 26.9085 12.3782L26.722 12.2766L26.5521 12.1936C26.3814 12.1095 26.2397 11.9807 26.1399 11.8235C25.4269 13.2305 23.7908 13.7802 22.3685 13.5042L22.053 13.428C22.0485 13.4267 22.0438 13.4245 22.0394 13.4231C21.502 13.5658 20.9267 13.5882 20.3587 13.4749L20.0442 13.3977C18.3866 12.9188 16.9942 11.2122 17.554 9.27174L17.6263 9.05104C17.719 8.80214 17.8434 8.57333 17.9896 8.36451C17.9071 8.04048 17.8727 7.69863 17.8997 7.34986ZM11.6429 11.7922C11.5325 11.7457 11.4067 11.7448 11.2972 11.7932C11.2547 11.812 11.2115 11.8297 11.1673 11.846L11.2972 11.7942C11.4067 11.7458 11.5326 11.7467 11.6429 11.7932C11.6929 11.8143 11.7448 11.8319 11.7972 11.8489C11.7447 11.8319 11.693 11.8134 11.6429 11.7922ZM22.2308 11.7932C22.1213 11.7448 21.9954 11.7457 21.8851 11.7922C21.8473 11.8082 21.808 11.8206 21.7689 11.8342C21.8078 11.8207 21.8474 11.8091 21.8851 11.7932C21.9953 11.7467 22.1213 11.7458 22.2308 11.7942C22.2636 11.8087 22.2974 11.8213 22.3314 11.8342C22.2973 11.8212 22.2637 11.8078 22.2308 11.7932ZM13.178 11.8137L13.2278 11.7971C13.2552 11.7866 13.2813 11.7735 13.3079 11.762C13.2654 11.7803 13.222 11.7973 13.178 11.8137ZM24.8235 10.8196C24.7919 10.9293 24.7468 11.0326 24.6927 11.1292C24.7195 11.0814 24.7454 11.0328 24.7669 10.9817L24.8235 10.8206V10.8196ZM18.222 8.99733L18.2679 9.09303L18.221 8.99342C18.2214 8.99455 18.2215 8.99623 18.222 8.99733ZM13.847 8.34303L13.9046 8.22389C13.9065 8.21946 13.9076 8.21466 13.9095 8.21022C13.8904 8.25497 13.87 8.29962 13.847 8.34303ZM8.34014 7.22975C8.31965 7.27429 8.30185 7.31975 8.28545 7.36549C8.3025 7.31801 8.32168 7.27107 8.34307 7.22486L8.34014 7.22975ZM25.1868 7.22975C25.2073 7.2743 25.2251 7.31974 25.2415 7.36549C25.2251 7.31986 25.2082 7.27419 25.1878 7.22975L25.1146 7.08912L25.1868 7.22975ZM25.3167 6.23365C25.3107 6.24935 25.3027 6.26416 25.2962 6.27955C25.3027 6.26433 25.3117 6.25015 25.3177 6.23463L25.3567 6.11647L25.3167 6.23365ZM8.30987 3.98268C8.31883 4.06498 8.33515 4.14721 8.35869 4.22877C8.37451 4.28342 8.39437 4.33674 8.41631 4.38795C8.42775 4.41474 8.43426 4.44287 8.44072 4.47096C8.43422 4.44269 8.42786 4.41393 8.41631 4.38697C8.39436 4.3357 8.37548 4.28251 8.35967 4.22779C8.32446 4.10579 8.30541 3.98246 8.30205 3.85963L8.30987 3.98268ZM25.1976 4.10572C25.1895 4.1465 25.18 4.18725 25.1683 4.22779C25.1537 4.27805 25.1362 4.32693 25.1165 4.37428L25.1692 4.22877C25.1928 4.14722 25.2084 4.06496 25.2171 3.98268L25.1976 4.10572ZM21.8899 2.45143C21.869 2.47016 21.8503 2.49125 21.8304 2.511C21.8586 2.48298 21.8873 2.45527 21.9173 2.42897L21.8899 2.45143Z" fill="black"/>
<path d="M9.75674 2.08183C8.7284 2.37875 8.10229 3.33959 8.35867 4.2277C8.37454 4.28268 8.39385 4.33582 8.41608 4.38726C8.47833 4.5313 8.4684 4.69998 8.38334 4.83185C8.13435 5.2179 8.04283 5.67529 8.16996 6.11587C8.21644 6.27684 8.28902 6.42424 8.38258 6.55605C8.49271 6.7112 8.50786 6.92411 8.41311 7.0891C8.20145 7.45765 8.1304 7.88309 8.24888 8.29371C8.33136 8.57938 8.4953 8.82257 8.71383 9.01128C8.89498 9.16771 8.95227 9.45406 8.84004 9.66546C8.65062 10.0223 8.59171 10.4281 8.70489 10.8201C8.96141 11.708 10.0025 12.1874 11.0307 11.8907C11.1232 11.864 11.2122 11.8311 11.2977 11.7934C11.4073 11.7452 11.5326 11.7461 11.6429 11.7927C12.0534 11.9659 12.5478 12.0026 13.0396 11.8606C14.0678 11.5636 14.6932 10.603 14.4368 9.71499C14.3543 9.42948 14.191 9.18601 13.9729 8.99707C13.7921 8.84043 13.7349 8.5543 13.8469 8.34297C14.0361 7.98613 14.0948 7.58017 13.9817 7.18836C13.9056 6.92517 13.7604 6.69817 13.5671 6.51658C13.4015 6.36098 13.353 6.09479 13.4591 5.8938C13.6466 5.53857 13.705 5.13533 13.5924 4.74538C13.4383 4.2117 13.0004 3.82662 12.4524 3.66828C12.2774 3.61773 12.1472 3.46322 12.1137 3.28421C12.1055 3.2402 12.0952 3.19627 12.0825 3.1525C11.8261 2.26445 10.785 1.785 9.75674 2.08183Z" fill="#F8C2D0"/>
<path d="M10.6444 5.47976C10.2181 5.60285 9.97526 6.05881 10.1019 6.49834C10.138 6.62341 10.1327 6.76042 10.0856 6.88179C10.0219 7.046 10.0092 7.23297 10.0624 7.41745C10.0732 7.45494 10.0865 7.49104 10.102 7.52565C10.1709 7.67989 10.1842 7.86453 10.1392 8.02737C10.0996 8.17127 10.0978 8.32849 10.1426 8.48393C10.1653 8.56262 10.1984 8.63539 10.2399 8.70115C10.3544 8.88296 10.4042 9.13773 10.3672 9.34943C10.3459 9.47169 10.3514 9.6012 10.3884 9.72928C10.5155 10.1686 10.964 10.4249 11.3902 10.302C11.5091 10.2676 11.6389 10.2695 11.7551 10.312C11.9052 10.367 12.0711 10.3778 12.235 10.3305C12.6613 10.2074 12.9041 9.7514 12.7775 9.31188C12.7546 9.23288 12.7215 9.1597 12.6799 9.09353C12.5657 8.91174 12.5162 8.65708 12.5529 8.44557C12.5741 8.32358 12.5686 8.19438 12.5317 8.06652C12.5106 7.99344 12.4804 7.92568 12.4429 7.86395C12.3372 7.69022 12.2955 7.456 12.334 7.25632C12.3582 7.13063 12.3539 6.99687 12.3158 6.86441C12.2483 6.63077 12.0897 6.44862 11.8921 6.34779C11.7751 6.28811 11.6827 6.17861 11.6463 6.05244C11.5192 5.6131 11.0706 5.35681 10.6444 5.47976Z" fill="#FAF9F7"/>
<path d="M23.7708 2.08183C24.7992 2.37875 25.4253 3.33959 25.1689 4.2277C25.153 4.28268 25.1337 4.33583 25.1115 4.38727C25.0493 4.53131 25.0592 4.69998 25.1442 4.83185C25.3932 5.21789 25.4847 5.6753 25.3576 6.11587C25.3111 6.27691 25.2383 6.42418 25.1445 6.55587C25.0341 6.71091 25.0189 6.92391 25.1138 7.08892C25.3257 7.4575 25.3972 7.88296 25.2787 8.29371C25.1962 8.57944 25.032 8.82247 24.8133 9.01106C24.6319 9.16741 24.5746 9.45391 24.687 9.66533C24.8767 10.0221 24.9359 10.4279 24.8227 10.8201C24.5662 11.708 23.5251 12.1874 22.4969 11.8907C22.4044 11.864 22.3153 11.8311 22.2299 11.7934C22.1203 11.7452 21.995 11.7461 21.8847 11.7927C21.4742 11.9659 20.9798 12.0026 20.488 11.8606C19.4597 11.5636 18.8344 10.6031 19.0908 9.71499C19.1733 9.42948 19.3366 9.18603 19.5546 8.99709C19.7354 8.84045 19.7926 8.55429 19.6806 8.34298C19.4914 7.98645 19.4327 7.58098 19.5456 7.1893C19.6217 6.92586 19.767 6.69849 19.9604 6.51666C20.126 6.361 20.1745 6.09476 20.0684 5.89375C19.881 5.53853 19.8226 5.13532 19.9351 4.74538C20.0893 4.21169 20.5272 3.82661 21.0752 3.66828C21.2502 3.61773 21.3804 3.46322 21.4139 3.2842C21.4221 3.24019 21.4324 3.19626 21.4451 3.1525C21.7015 2.26445 22.7425 1.78498 23.7708 2.08183Z" fill="#F8C2D0"/>
<path d="M22.8832 5.47976C23.3095 5.60285 23.5523 6.05881 23.4257 6.49834C23.3895 6.62341 23.3949 6.76042 23.4419 6.88179C23.5057 7.046 23.5184 7.23298 23.4652 7.41745C23.4544 7.45495 23.4411 7.49105 23.4256 7.52567C23.3567 7.67989 23.3434 7.86452 23.3883 8.02736C23.428 8.17126 23.4298 8.32849 23.385 8.48393C23.3622 8.56263 23.3292 8.63541 23.2877 8.70118C23.1731 8.88297 23.1234 9.13772 23.1603 9.3494C23.1817 9.47167 23.1762 9.60119 23.1392 9.72928C23.0121 10.1686 22.5636 10.4249 22.1373 10.302C22.0185 10.2676 21.8887 10.2695 21.7725 10.312C21.6224 10.367 21.4565 10.3778 21.2926 10.3305C20.8663 10.2074 20.6235 9.7514 20.7501 9.31188C20.7729 9.23289 20.8061 9.15971 20.8476 9.09356C20.9618 8.91175 21.0114 8.65706 20.9746 8.44554C20.9534 8.32355 20.9589 8.19437 20.9959 8.06652C21.017 7.99347 21.0471 7.92573 21.0847 7.86403C21.1903 7.69025 21.232 7.45597 21.1936 7.25626C21.1694 7.1306 21.1736 6.99688 21.2118 6.86441C21.2794 6.63045 21.4382 6.44839 21.6362 6.34777C21.7533 6.28826 21.8449 6.17864 21.8813 6.05244C22.0084 5.61309 22.4569 5.35678 22.8832 5.47976Z" fill="#FAF9F7"/>
<path d="M15.1908 7.53997C16.1269 6.95084 17.3179 6.95084 18.254 7.53997L18.5208 7.7079C18.756 7.8559 19.0399 7.90536 19.3113 7.84561L19.6388 7.77348C20.7428 7.53034 21.8868 7.95666 22.5625 8.86299L22.6544 8.9862C22.8279 9.21896 23.0895 9.37011 23.3778 9.40419L23.6356 9.43466C24.7844 9.57048 25.7298 10.4019 26.0113 11.524C26.0845 11.8158 26.2822 12.0606 26.5521 12.1936L26.7218 12.2773C27.7446 12.7814 28.3175 13.8949 28.133 15.0202C28.0851 15.3118 28.1754 15.6092 28.3774 15.825L28.4095 15.8593C29.2055 16.7099 29.3271 17.9916 28.7066 18.9775C28.5494 19.2274 28.5186 19.5369 28.6239 19.8127C29.0332 20.885 28.6768 22.0986 27.7528 22.7794L27.6504 22.8548C27.4108 23.0313 27.2643 23.3069 27.2518 23.6042C27.2038 24.7466 26.434 25.7318 25.337 26.0544L25.1137 26.1201C24.826 26.2047 24.5877 26.4076 24.4583 26.6782L24.4407 26.715C23.9408 27.7603 22.8624 28.4034 21.7051 28.3464L21.4208 28.3324C21.1384 28.3185 20.8622 28.4182 20.654 28.6094L20.4707 28.7776C19.6512 29.5297 18.4714 29.7416 17.4413 29.3218L17.1214 29.1914C16.8656 29.0872 16.5792 29.0872 16.3235 29.1914L16.0035 29.3218C14.9734 29.7416 13.7937 29.5297 12.9741 28.7776L12.7909 28.6094C12.5826 28.4182 12.3064 28.3185 12.0241 28.3324L11.7397 28.3464C10.5825 28.4034 9.50403 27.7603 9.00414 26.715L8.98652 26.6782C8.85712 26.4076 8.61887 26.2047 8.33113 26.1201L8.10783 26.0544C7.01086 25.7318 6.24099 24.7466 6.19305 23.6042C6.18057 23.3069 6.03398 23.0313 5.79445 22.8548L5.69199 22.7793C4.76798 22.0986 4.41165 20.885 4.82093 19.8127C4.9262 19.5369 4.89545 19.2274 4.73821 18.9775C4.11769 17.9916 4.23929 16.7099 5.03531 15.8594L5.06741 15.825C5.26939 15.6092 5.3597 15.3118 5.31186 15.0202C5.12732 13.8949 5.70022 12.7814 6.72298 12.2773L6.89275 12.1936C7.16259 12.0606 7.36034 11.8158 7.43354 11.524C7.71502 10.4019 8.66046 9.57048 9.80926 9.43466L10.067 9.40419C10.3553 9.37011 10.6169 9.21896 10.7905 8.9862L10.8823 8.86299C11.558 7.95666 12.702 7.53034 13.8061 7.77348L14.1335 7.84561C14.4049 7.90536 14.6888 7.8559 14.924 7.7079L15.1908 7.53997Z" fill="#F8C2D0"/>
<circle cx="12.3176" cy="16.9713" r="1.05714" fill="#333333"/>
<circle cx="21.1272" cy="16.9713" r="1.05714" fill="#333333"/>
<ellipse cx="10.027" cy="18.9975" rx="1.7619" ry="1.32143" fill="#F2AABE"/>
<ellipse cx="23.4177" cy="18.9975" rx="1.7619" ry="1.32143" fill="#F2AABE"/>
<path d="M14.6082 20.4069C14.8724 20.6712 15.8415 21.1998 16.7224 20.3188C17.6034 21.1998 18.5724 20.6712 18.8367 20.4069" stroke="#333333" stroke-width="0.528571" stroke-linecap="round" stroke-linejoin="round"/>
<path d="M15.9296 18.6451C16.3701 19.0856 16.7225 19.0856 16.7225 19.0856C16.7225 19.0856 17.0748 19.0856 17.5153 18.6451C17.6834 18.4771 17.8188 18.2962 17.922 18.1367C18.0581 17.9265 17.8976 17.676 17.6471 17.676L16.7225 17.676L15.7978 17.676C15.5473 17.676 15.3868 17.9265 15.523 18.1367C15.6262 18.2962 15.7616 18.4771 15.9296 18.6451Z" fill="#333333"/>
</g>
<defs>
<filter id="filter0_d_80_678" x="0.722168" y="0" width="32" height="32" filterUnits="userSpaceOnUse" color-interpolation-filters="sRGB">
<feFlood flood-opacity="0" result="BackgroundImageFix"/>
<feColorMatrix in="SourceAlpha" type="matrix" values="0 0 0 0 0 0 0 0 0 0 0 0 0 0 0 0 0 0 127 0" result="hardAlpha"/>
<feOffset/>
<feComposite in2="hardAlpha" operator="out"/>
<feColorMatrix type="matrix" values="0 0 0 0 1 0 0 0 0 1 0 0 0 0 1 0 0 0 1 0"/>
<feBlend mode="normal" in2="BackgroundImageFix" result="effect1_dropShadow_80_678"/>
<feBlend mode="normal" in="SourceGraphic" in2="effect1_dropShadow_80_678" result="shape"/>
</filter>
</defs>
</svg>
