<svg width="33" height="32" viewBox="0 0 33 32" fill="none" xmlns="http://www.w3.org/2000/svg">
<g filter="url(#filter0_d_80_588)">
<path d="M26.8726 4.7168L27.2388 4.74512L27.772 4.80566L27.9175 5.32227C27.9549 5.45482 28.3413 6.86369 28.103 8.4375L28.0464 8.75488C27.919 9.37654 27.7439 9.9162 27.5737 10.3525C29.0838 12.2938 29.9779 14.6697 29.978 17.2402C29.978 23.9258 23.9841 29.206 16.772 29.2061C9.55979 29.2061 3.56592 23.9258 3.56592 17.2402C3.566 14.7076 4.43375 12.3638 5.90381 10.4385C5.75421 10.0656 5.5982 9.61117 5.47217 9.08984L5.39795 8.75488C5.05029 7.05782 5.48697 5.46365 5.52686 5.32227L5.67236 4.80566L6.20557 4.74512L6.57178 4.7168C7.17138 4.68891 8.39915 4.7052 9.61377 5.16602L10.0415 5.33984C10.7193 5.63424 11.258 5.95957 11.6323 6.21484C13.2141 5.60908 14.9515 5.27539 16.772 5.27539C18.5674 5.2754 20.2819 5.60033 21.8462 6.19043C22.2963 5.88664 22.972 5.49177 23.8306 5.16602L24.1343 5.05957C25.2455 4.70263 26.323 4.69123 26.8726 4.7168Z" fill="#F2AABE" stroke="black" stroke-width="1.6"/>
<path d="M6.18124 8.59392C6.50176 10.1585 7.14443 11.1609 7.14443 11.1609L9.42266 9.22194L9.43172 9.21424L11.7099 7.27531C11.7099 7.27531 10.8232 6.48065 9.33002 5.9141C7.89556 5.36985 6.41117 5.52644 6.29656 5.5396C6.26523 5.65064 5.87333 7.0909 6.18124 8.59392Z" fill="#E28DAC"/>
<path d="M27.2629 8.59392C26.9423 10.1585 26.2997 11.1609 26.2997 11.1609L24.0214 9.22194L24.0124 9.21424L21.7341 7.27531C21.7341 7.27531 22.6209 6.48065 24.1141 5.9141C25.5485 5.36985 27.0329 5.52644 27.1475 5.5396C27.1789 5.65064 27.5708 7.0909 27.2629 8.59392Z" fill="#E28DAC"/>
<ellipse cx="16.7719" cy="17.2406" rx="12.4062" ry="11.1655" fill="#F8C2D0"/>
<circle cx="12.341" cy="15.8228" r="1.06338" fill="#333333"/>
<circle cx="21.2028" cy="15.8228" r="1.06338" fill="#333333"/>
<ellipse cx="16.7718" cy="19.1902" rx="4.608" ry="3.01292" fill="#E88BAA"/>
<ellipse cx="18.0124" cy="18.8356" rx="0.354462" ry="0.886154" fill="#F8BFD0"/>
<ellipse cx="15.5312" cy="18.8356" rx="0.354462" ry="0.886154" fill="#F8BFD0"/>
<ellipse cx="10.037" cy="17.861" rx="1.77231" ry="1.32923" fill="#F2AABE"/>
<ellipse cx="23.5067" cy="17.861" rx="1.77231" ry="1.32923" fill="#F2AABE"/>
</g>
<defs>
<filter id="filter0_d_80_588" x="0.722168" y="0" width="32" height="32" filterUnits="userSpaceOnUse" color-interpolation-filters="sRGB">
<feFlood flood-opacity="0" result="BackgroundImageFix"/>
<feColorMatrix in="SourceAlpha" type="matrix" values="0 0 0 0 0 0 0 0 0 0 0 0 0 0 0 0 0 0 127 0" result="hardAlpha"/>
<feOffset/>
<feComposite in2="hardAlpha" operator="out"/>
<feColorMatrix type="matrix" values="0 0 0 0 1 0 0 0 0 1 0 0 0 0 1 0 0 0 1 0"/>
<feBlend mode="normal" in2="BackgroundImageFix" result="effect1_dropShadow_80_588"/>
<feBlend mode="normal" in="SourceGraphic" in2="effect1_dropShadow_80_588" result="shape"/>
</filter>
</defs>
</svg>
