<svg width="33" height="32" viewBox="0 0 33 32" fill="none" xmlns="http://www.w3.org/2000/svg">
<g filter="url(#filter0_d_80_450)">
<path d="M26.8728 4.7168L27.239 4.74512L27.7722 4.80566L27.9177 5.32227C27.9551 5.45482 28.3415 6.86369 28.1033 8.4375L28.0466 8.75488C27.9192 9.37654 27.7442 9.9162 27.574 10.3525C29.0841 12.2938 29.9782 14.6697 29.9783 17.2402C29.9783 23.9258 23.9844 29.206 16.7722 29.2061C9.56003 29.2061 3.56616 23.9258 3.56616 17.2402C3.56624 14.7076 4.43399 12.3638 5.90405 10.4385C5.75446 10.0656 5.59845 9.61117 5.47241 9.08984L5.39819 8.75488C5.05053 7.05782 5.48721 5.46365 5.5271 5.32227L5.67261 4.80566L6.20581 4.74512L6.57202 4.7168C7.17162 4.68891 8.39939 4.7052 9.61401 5.16602L10.0417 5.33984C10.7195 5.63424 11.2583 5.95957 11.6326 6.21484C13.2144 5.60908 14.9518 5.27539 16.7722 5.27539C18.5677 5.2754 20.2821 5.60033 21.8464 6.19043C22.2965 5.88664 22.9722 5.49177 23.8308 5.16602L24.1345 5.05957C25.2458 4.70263 26.3232 4.69123 26.8728 4.7168Z" fill="#F2AABE" stroke="white" stroke-width="1.6"/>
<path d="M6.18124 8.59392C6.50176 10.1585 7.14443 11.1609 7.14443 11.1609L9.42266 9.22194L9.43172 9.21424L11.7099 7.27531C11.7099 7.27531 10.8232 6.48065 9.33002 5.9141C7.89556 5.36985 6.41117 5.52644 6.29656 5.5396C6.26523 5.65064 5.87333 7.0909 6.18124 8.59392Z" fill="#E28DAC"/>
<path d="M27.2629 8.59392C26.9423 10.1585 26.2997 11.1609 26.2997 11.1609L24.0214 9.22194L24.0124 9.21424L21.7341 7.27531C21.7341 7.27531 22.6209 6.48065 24.1141 5.9141C25.5485 5.36985 27.0329 5.52644 27.1475 5.5396C27.1789 5.65064 27.5708 7.0909 27.2629 8.59392Z" fill="#E28DAC"/>
<ellipse cx="16.7721" cy="17.2406" rx="12.4062" ry="11.1655" fill="#F8C2D0"/>
<circle cx="12.3412" cy="15.8227" r="1.06338" fill="#333333"/>
<circle cx="21.2028" cy="15.8227" r="1.06338" fill="#333333"/>
<ellipse cx="16.7718" cy="19.1902" rx="4.608" ry="3.01292" fill="#E88BAA"/>
<ellipse cx="18.0124" cy="18.8357" rx="0.354462" ry="0.886154" fill="#F8BFD0"/>
<ellipse cx="15.5312" cy="18.8357" rx="0.354462" ry="0.886154" fill="#F8BFD0"/>
<ellipse cx="10.037" cy="17.861" rx="1.77231" ry="1.32923" fill="#F2AABE"/>
<ellipse cx="23.5067" cy="17.861" rx="1.77231" ry="1.32923" fill="#F2AABE"/>
</g>
<defs>
<filter id="filter0_d_80_450" x="0.722168" y="0" width="32" height="32" filterUnits="userSpaceOnUse" color-interpolation-filters="sRGB">
<feFlood flood-opacity="0" result="BackgroundImageFix"/>
<feColorMatrix in="SourceAlpha" type="matrix" values="0 0 0 0 0 0 0 0 0 0 0 0 0 0 0 0 0 0 127 0" result="hardAlpha"/>
<feOffset/>
<feComposite in2="hardAlpha" operator="out"/>
<feColorMatrix type="matrix" values="0 0 0 0 1 0 0 0 0 1 0 0 0 0 1 0 0 0 1 0"/>
<feBlend mode="normal" in2="BackgroundImageFix" result="effect1_dropShadow_80_450"/>
<feBlend mode="normal" in="SourceGraphic" in2="effect1_dropShadow_80_450" result="shape"/>
</filter>
</defs>
</svg>
