<svg width="37" height="32" viewBox="0 0 37 32" fill="none" xmlns="http://www.w3.org/2000/svg">
<g filter="url(#filter0_d_80_659)">
<path d="M25.5032 4.02808C26.0933 3.79035 26.654 3.69365 27.0842 3.79858L27.0852 3.79663C27.0945 3.79872 27.1039 3.80294 27.1135 3.80542C27.1176 3.80653 27.1221 3.80623 27.1262 3.80737L27.1252 3.80835C27.4023 3.88316 27.8042 4.11715 27.8899 4.6394C27.9548 5.03564 27.7931 5.39953 27.595 5.69312L27.5081 5.81421C27.1343 6.31259 26.9179 6.68215 26.7727 6.98511C27.5876 7.46257 28.201 8.25207 28.4407 9.20679L28.4583 9.25366C28.48 9.29697 28.5156 9.33236 28.5598 9.35425L28.7297 9.43823L28.969 9.56812C29.4412 9.84975 29.8272 10.2366 30.1077 10.6863C30.3842 10.853 30.6597 11.0276 30.9368 11.2048L31.5706 11.6062C32.2288 12.016 32.9764 12.4495 33.9485 12.8914C34.5302 13.1558 35.176 13.6346 35.4231 14.3113C35.5587 14.6826 35.5674 15.1086 35.3704 15.5203C35.1946 15.8875 34.889 16.17 34.5237 16.3884C33.9432 16.873 32.7564 17.3316 31.1838 17.0349C31.1824 17.0378 31.1814 17.0409 31.1799 17.0437L31.0403 17.2878C31.0167 17.3253 31.012 17.3721 31.0276 17.4128L31.1165 17.6785C31.478 18.9287 31.0819 20.2791 30.1018 21.1355L29.8831 21.3113L29.7805 21.3865C29.7471 21.4111 29.7229 21.4459 29.7122 21.4851L29.7063 21.5261C29.6478 22.9187 28.7642 24.1318 27.4788 24.6238L27.2161 24.7126L26.9924 24.7781C26.9397 24.7936 26.8935 24.8251 26.8606 24.8679L26.8323 24.9138L26.8147 24.9509C26.2152 26.2044 24.9656 27.0056 23.592 27.0408L23.3157 27.0378L23.0315 27.0232C22.9798 27.0206 22.9287 27.0339 22.885 27.0603L22.844 27.0916L22.6604 27.2595C21.6777 28.1612 20.2905 28.4556 19.0354 28.0466L18.7864 27.9558L18.4661 27.825C18.4191 27.8058 18.3677 27.8016 18.3186 27.8113L18.2708 27.825L17.9504 27.9558C16.7152 28.4591 15.3119 28.252 14.2776 27.4314L14.0764 27.2595L13.8928 27.0916C13.8546 27.0565 13.8067 27.0337 13.7561 27.0261L13.7053 27.0232L13.4211 27.0378C12.0335 27.1062 10.7339 26.3876 10.05 25.196L9.92212 24.9509L9.90454 24.9138C9.88082 24.8643 9.8417 24.8243 9.79419 24.7986L9.74438 24.7781L9.52075 24.7126C8.18329 24.3193 7.21941 23.1681 7.05298 21.8015L7.03052 21.5261C7.02878 21.4847 7.01303 21.4456 6.98657 21.4148L6.9563 21.3865L6.85376 21.3113C5.63964 20.4167 5.17166 18.8218 5.70923 17.4128L5.71802 17.3494L5.69653 17.2878C5.64114 17.1998 5.59063 17.1097 5.54419 17.0183C3.92826 17.3479 2.70846 16.8812 2.11841 16.3875C1.75399 16.1691 1.4491 15.8868 1.27368 15.5203C1.07671 15.1087 1.08542 14.6826 1.22095 14.3113C1.46805 13.6346 2.11391 13.1558 2.69556 12.8914L3.19946 12.655C4.33483 12.1067 5.20212 11.5756 5.98462 11.0964L6.60767 10.7195C6.93472 10.1812 7.41313 9.73097 8.00708 9.43823L8.177 9.35425L8.21802 9.32788C8.25598 9.29739 8.2831 9.25487 8.29517 9.20679L8.35962 8.98413C8.624 8.15923 9.17246 7.47326 9.88501 7.03101C9.77055 6.78551 9.6109 6.4964 9.35571 6.12866L9.12817 5.81421C8.89442 5.50247 8.67212 5.09219 8.74634 4.6394C8.83195 4.11777 9.23304 3.88345 9.51001 3.80835V3.80737C9.51377 3.80632 9.51795 3.80644 9.52173 3.80542C9.53174 3.80284 9.54139 3.7988 9.55103 3.79663V3.79956C9.98493 3.69328 10.5521 3.79221 11.1506 4.03589C11.6964 4.25809 12.3481 4.6313 13.0959 5.21655C13.8547 4.81078 14.7475 4.67455 15.6213 4.86694L15.9495 4.93921L15.9993 4.94507C16.0494 4.94615 16.0988 4.93209 16.1418 4.90503L16.4094 4.73706L16.6379 4.60522C17.7962 3.98723 19.205 4.03075 20.3274 4.73706L20.594 4.90503L20.6399 4.92847C20.6866 4.94625 20.7379 4.95009 20.7874 4.93921L21.1155 4.86694L21.3157 4.82886C22.1017 4.70081 22.8932 4.83404 23.5803 5.1853C24.3193 4.61186 24.9634 4.24556 25.5032 4.02808Z" fill="#D9D9D9" stroke="black" stroke-width="1.6" stroke-linecap="round" stroke-linejoin="round"/>
<path d="M13.2669 6.40187C11.3479 4.68581 10.1068 4.47039 9.72607 4.57718C9.56386 4.61361 9.36685 4.79914 9.76834 5.33448C10.6791 6.5489 10.7641 7.11301 10.9976 7.67827C11.4279 7.60292 12.4843 7.24215 13.2669 6.40187Z" fill="#F7C894"/>
<path d="M23.3696 6.40187C25.2885 4.68581 26.5297 4.47039 26.9104 4.57718C27.0726 4.61361 27.2696 4.79914 26.8681 5.33448C25.9573 6.5489 25.8723 7.11301 25.6389 7.67827C25.2085 7.60292 24.1522 7.24215 23.3696 6.40187Z" fill="#F7C894"/>
<path d="M30.4436 16C32.3481 16.7054 33.6471 16.1176 34.0586 15.7355C32.8595 15.9471 30.5612 14.7069 29.5619 14.0603L29.4322 15.5592C29.5791 15.6474 29.873 15.7887 30.4436 16Z" fill="#F2AABE"/>
<path d="M33.6173 13.6195C31.6776 12.7378 30.5901 11.8855 29.4733 11.2389L27.9744 12.9141C29.5321 14.1191 32.5592 16.0883 34.0582 15.7356C35.2925 15.0412 34.6055 14.0687 33.6173 13.6195Z" fill="#FAF9F7"/>
<path d="M6.20092 16C4.29644 16.7054 2.9974 16.1176 2.58594 15.7355C3.78505 15.9471 6.08336 14.7069 7.08262 14.0603L7.21238 15.5592C7.06543 15.6474 6.77153 15.7887 6.20092 16Z" fill="#F2AABE"/>
<path d="M3.02674 13.6195C4.96649 12.7378 6.18368 11.8855 7.3005 11.2389L8.66964 12.9141C7.11196 14.1191 4.08479 16.0883 2.58589 15.7356C1.35152 15.0412 2.03857 14.0687 3.02674 13.6195Z" fill="#FAF9F7"/>
<path d="M16.8356 5.41457C17.7725 4.82494 18.9645 4.82494 19.9014 5.41457L20.1685 5.58264C20.4038 5.73076 20.688 5.78028 20.9596 5.72047L21.2874 5.64828C22.3923 5.40493 23.5374 5.83162 24.2136 6.73872L24.3055 6.86204C24.4792 7.09499 24.741 7.24626 25.0296 7.28038L25.2876 7.31088C26.4374 7.44681 27.3836 8.27897 27.6653 9.40196C27.7386 9.69401 27.9365 9.93909 28.2066 10.0722L28.3765 10.1559C29.4001 10.6605 29.9735 11.775 29.7888 12.9011C29.7409 13.1931 29.8313 13.4907 30.0335 13.7067L30.0656 13.741C30.8623 14.5924 30.984 15.8751 30.3629 16.8619C30.2056 17.1119 30.1748 17.4217 30.2802 17.6978C30.6898 18.7709 30.3331 19.9856 29.4084 20.6669L29.3058 20.7425C29.0661 20.9191 28.9194 21.1949 28.9069 21.4925C28.8589 22.6359 28.0884 23.6219 26.9905 23.9448L26.767 24.0105C26.479 24.0952 26.2405 24.2983 26.111 24.5691L26.0934 24.606C25.5931 25.6521 24.5137 26.2958 23.3555 26.2387L23.0709 26.2247C22.7883 26.2108 22.5119 26.3106 22.3034 26.5019L22.12 26.6703C21.2998 27.423 20.119 27.6351 19.0881 27.215L18.7678 27.0845C18.5119 26.9802 18.2252 26.9802 17.9692 27.0845L17.649 27.215C16.6181 27.6351 15.4373 27.423 14.6171 26.6703L14.4336 26.5019C14.2252 26.3106 13.9488 26.2108 13.6662 26.2247L13.3816 26.2387C12.2233 26.2958 11.144 25.6521 10.6437 24.606L10.626 24.5691C10.4965 24.2983 10.2581 24.0952 9.9701 24.0105L9.7466 23.9448C8.6487 23.6219 7.87817 22.6359 7.8302 21.4925C7.81771 21.1949 7.67099 20.9191 7.43125 20.7425L7.32871 20.6669C6.40392 19.9856 6.04728 18.7709 6.45691 17.6978C6.56227 17.4217 6.53149 17.1119 6.37411 16.8619C5.75307 15.8751 5.87477 14.5924 6.67147 13.741L6.7036 13.7067C6.90575 13.4907 6.99614 13.1931 6.94826 12.9011C6.76356 11.775 7.33695 10.6604 8.36058 10.1559L8.53049 10.0722C8.80056 9.93909 8.99848 9.69401 9.07174 9.40196C9.35346 8.27897 10.2997 7.44681 11.4495 7.31088L11.7075 7.28038C11.996 7.24626 12.2579 7.09499 12.4315 6.86204L12.5235 6.73872C13.1997 5.83162 14.3447 5.40493 15.4497 5.64828L15.7775 5.72047C16.049 5.78028 16.3332 5.73076 16.5686 5.58264L16.8356 5.41457Z" fill="#FAF9F7"/>
<circle cx="13.9597" cy="14.8538" r="1.05804" fill="#333333"/>
<circle cx="22.7768" cy="14.8538" r="1.05804" fill="#333333"/>
<ellipse cx="11.6675" cy="16.8818" rx="1.7634" ry="1.32255" fill="#F2AABE"/>
<ellipse cx="25.0691" cy="16.8818" rx="1.7634" ry="1.32255" fill="#F2AABE"/>
<path d="M16.2524 18.2925C16.517 18.557 17.4868 19.086 18.3685 18.2043C19.2502 19.086 20.2201 18.557 20.4846 18.2925" stroke="#333333" stroke-width="0.529021" stroke-linecap="round" stroke-linejoin="round"/>
<path d="M17.5748 16.5291C18.0157 16.97 18.3684 16.97 18.3684 16.97C18.3684 16.97 18.7211 16.97 19.1619 16.5291C19.3301 16.3609 19.4656 16.1799 19.5689 16.0203C19.7051 15.8099 19.5445 15.5592 19.2938 15.5592L18.3684 15.5592L17.4429 15.5592C17.1922 15.5592 17.0316 15.8099 17.1678 16.0203C17.2711 16.1799 17.4067 16.3609 17.5748 16.5291Z" fill="#333333"/>
</g>
<defs>
<filter id="filter0_d_80_659" x="0.322266" y="0" width="35.9998" height="32" filterUnits="userSpaceOnUse" color-interpolation-filters="sRGB">
<feFlood flood-opacity="0" result="BackgroundImageFix"/>
<feColorMatrix in="SourceAlpha" type="matrix" values="0 0 0 0 0 0 0 0 0 0 0 0 0 0 0 0 0 0 127 0" result="hardAlpha"/>
<feOffset/>
<feComposite in2="hardAlpha" operator="out"/>
<feColorMatrix type="matrix" values="0 0 0 0 1 0 0 0 0 1 0 0 0 0 1 0 0 0 1 0"/>
<feBlend mode="normal" in2="BackgroundImageFix" result="effect1_dropShadow_80_659"/>
<feBlend mode="normal" in="SourceGraphic" in2="effect1_dropShadow_80_659" result="shape"/>
</filter>
</defs>
</svg>
