<svg width="33" height="32" viewBox="0 0 33 32" fill="none" xmlns="http://www.w3.org/2000/svg">
<g filter="url(#filter0_d_80_540)">
<path d="M19.5803 2.37072C20.2733 0.68854 22.2104 0.0952605 23.7688 0.544544H23.7698L24.0774 0.648059C25.5385 1.21561 26.696 2.73418 26.3108 4.47032C26.5774 5.09683 26.6605 5.82418 26.4485 6.55919V6.56017C26.4149 6.67627 26.3723 6.78805 26.3264 6.89708C26.4989 7.41554 26.5472 7.99033 26.4133 8.57286L26.3703 8.7379C26.3133 8.9352 26.235 9.12002 26.1438 9.29454C26.543 9.74533 26.8526 10.2798 27.0412 10.8736C28.5649 11.6541 29.4522 13.2764 29.3039 14.9654C30.3712 16.2599 30.5544 18.0685 29.7756 19.5485C30.2527 21.1628 29.705 22.9126 28.3801 23.9684C28.2027 25.5545 27.1546 26.9104 25.6662 27.4801L25.343 27.5895H25.341C24.5801 29.0076 23.1193 29.9079 21.5168 29.9488L21.1809 29.9449L21.1233 29.941L21.1076 29.9567C19.9119 31.0538 18.2228 31.4124 16.6955 30.9147L16.3918 30.8033L16.2766 30.7565L16.1623 30.8033C14.6595 31.4156 12.9511 31.1647 11.6926 30.1666L11.4475 29.9567L11.4309 29.941L11.3733 29.9449C9.64171 30.0301 8.02579 29.1064 7.21214 27.5895H7.21117C5.55277 27.1015 4.3627 25.6664 4.17308 23.9674C2.84921 22.9116 2.30173 21.1622 2.77855 19.5485C1.99994 18.0686 2.18319 16.2598 3.25023 14.9654C3.10205 13.2769 3.98897 11.6543 5.51195 10.8736C5.70878 10.2538 6.03716 9.69766 6.46214 9.23497C6.41798 9.14591 6.37651 9.05456 6.34105 8.95958L6.26781 8.7379C6.0836 8.09956 6.12305 7.46429 6.31175 6.89708C6.26585 6.7881 6.22322 6.67621 6.18968 6.56017V6.55919C5.97765 5.82423 6.06079 5.0968 6.32738 4.47032C5.9156 2.61402 7.26775 1.00688 8.86839 0.544544H8.86937L9.1848 0.468372C10.6797 0.178495 12.4098 0.800634 13.0569 2.37072C13.736 2.71477 14.3233 3.2935 14.6164 4.09142L14.6858 4.30138V4.30236L14.7258 4.45763C14.8306 4.90758 14.8231 5.35297 14.7366 5.77208C15.7609 5.39631 16.8905 5.40879 17.9084 5.80724C17.8045 5.32998 17.8039 4.81714 17.9524 4.30236V4.30138L18.0217 4.09142C18.3147 3.2938 18.9015 2.71486 19.5803 2.37072ZM17.4543 7.34923C16.7326 7.02547 15.9088 7.01493 15.1799 7.31603C15.2118 7.67638 15.179 8.02955 15.094 8.36388C15.24 8.57262 15.3645 8.80161 15.4573 9.0504L15.5295 9.27111L15.5764 9.45275C16.0023 11.318 14.6441 12.9334 13.0383 13.3971V13.3981C12.3702 13.5908 11.68 13.5918 11.0432 13.4225L11.0305 13.4274C9.51731 13.8642 7.64537 13.318 6.90355 11.7447C6.80386 11.9373 6.64564 12.0963 6.44749 12.194L6.27757 12.277L6.09105 12.3785C5.18629 12.9204 4.69353 13.9654 4.86644 15.0201C4.91426 15.3117 4.82408 15.609 4.6223 15.8248L4.59007 15.859L4.44847 16.024C3.7819 16.8692 3.7118 18.053 4.2932 18.9772C4.45044 19.227 4.4805 19.5373 4.37523 19.8131L4.30784 20.0152C4.01319 21.0345 4.38026 22.1416 5.24632 22.7799L5.34886 22.8551C5.58834 23.0315 5.73476 23.3069 5.7473 23.6041C5.79525 24.7463 6.5657 25.7315 7.66234 26.0543L7.88597 26.1207C8.17355 26.2054 8.41187 26.4079 8.54124 26.6783L8.55882 26.7154C9.02744 27.6951 10.0048 28.3216 11.0784 28.3492L11.2942 28.3463L11.5784 28.3326C11.8606 28.3187 12.1377 28.4189 12.3459 28.61L12.5285 28.7779C13.2968 29.4829 14.3822 29.7129 15.3635 29.3932L15.5578 29.3219L15.8782 29.192C16.1338 29.0878 16.4203 29.0879 16.676 29.192L16.9963 29.3219C17.9617 29.7152 19.0589 29.5537 19.8674 28.9127L20.0256 28.7779L20.2082 28.61C20.4164 28.4189 20.6936 28.3188 20.9758 28.3326L21.26 28.3463C22.3446 28.3997 23.3601 27.8381 23.8948 26.9068L23.9953 26.7154L24.0129 26.6783C24.1422 26.408 24.3808 26.2055 24.6682 26.1207L24.8918 26.0543C25.9887 25.7316 26.7589 24.7464 26.8069 23.6041C26.8194 23.307 26.966 23.0315 27.2053 22.8551L27.3078 22.7799C28.1741 22.1416 28.5411 21.0346 28.2463 20.0152L28.1789 19.8131C28.0737 19.5374 28.1039 19.2269 28.261 18.9772C28.8425 18.0529 28.7725 16.8692 28.1057 16.024L27.9641 15.859L27.9319 15.8248C27.7302 15.6091 27.64 15.3116 27.6877 15.0201C27.8607 13.9653 27.3681 12.9203 26.4631 12.3785L26.2766 12.277L26.1067 12.194C25.9359 12.1097 25.7943 11.9803 25.6946 11.8229C24.9816 13.2302 23.3456 13.7797 21.9231 13.5035L21.6076 13.4274C21.6032 13.426 21.5984 13.4238 21.594 13.4225C21.0566 13.5651 20.4813 13.5877 19.9133 13.4742L19.5989 13.3971C17.9414 12.918 16.5487 11.2114 17.1086 9.27111L17.1809 9.0504C17.2736 8.80155 17.3981 8.57267 17.5442 8.36388C17.4618 8.03989 17.4273 7.698 17.4543 7.34923ZM24.3782 10.8199L24.4094 10.691C24.4098 10.6888 24.409 10.6864 24.4094 10.6842C24.4009 10.7295 24.3911 10.7749 24.3782 10.8199ZM8.33031 9.80138C8.31208 9.84433 8.29594 9.88826 8.28148 9.93224C8.29642 9.8868 8.31325 9.84179 8.33226 9.79747L8.33031 9.80138ZM13.6819 9.14904C13.6896 9.1579 13.6968 9.16734 13.7043 9.17638C13.6967 9.16723 13.6897 9.15703 13.6819 9.14806L13.5285 8.99669L13.6819 9.14904ZM19.2219 8.85802C19.1928 8.91036 19.1549 8.95743 19.1096 8.99669C19.0551 9.04393 19.0045 9.09517 18.9573 9.14904L19.1106 8.99669C19.1555 8.9577 19.193 8.91084 19.2219 8.859V8.85802ZM17.7766 8.99669L17.8225 9.0924L17.7756 8.99279C17.7761 8.99387 17.7762 8.99557 17.7766 8.99669ZM19.2825 8.69005C19.2767 8.71954 19.2693 8.74874 19.259 8.77697L19.2834 8.69005C19.2891 8.66074 19.2922 8.63094 19.2932 8.60118L19.2825 8.69005ZM19.2356 8.3424C19.2636 8.39529 19.2817 8.45323 19.2893 8.51232L19.2707 8.4254C19.262 8.39716 19.2505 8.3697 19.2366 8.34337L19.2356 8.3424ZM24.7805 7.32384C24.7683 7.29213 24.7567 7.26012 24.7424 7.22911L24.7073 7.16173C24.7346 7.21484 24.7589 7.26899 24.7805 7.32384ZM19.6233 5.89415C19.6329 5.9123 19.6406 5.93171 19.6477 5.95079C19.6406 5.93175 19.6338 5.91227 19.6243 5.89415C19.6009 5.84986 19.5791 5.80505 19.5598 5.75939L19.6233 5.89415ZM13.1301 5.61974C13.115 5.66673 13.0987 5.71354 13.0793 5.75939L13.1311 5.61974C13.146 5.57303 13.1586 5.52574 13.1692 5.47814L13.1301 5.61974ZM7.91429 4.22814C7.93009 4.28276 7.94999 4.33613 7.97191 4.38732L7.91527 4.22814C7.89963 4.17397 7.88669 4.11959 7.87718 4.06505L7.91429 4.22814ZM12.2082 3.73888C12.2704 3.76457 12.3308 3.79301 12.3889 3.82482C12.3308 3.79296 12.2705 3.76361 12.2082 3.7379L12.009 3.66857L12.2082 3.73888ZM20.7746 3.59532C20.7312 3.62771 20.6823 3.65318 20.6291 3.66857L20.4299 3.7379C20.369 3.76308 20.3101 3.79179 20.2532 3.82286C20.3706 3.75886 20.4972 3.70702 20.6301 3.66857C20.6831 3.65322 20.7313 3.62753 20.7746 3.59532ZM11.6868 3.35021C11.6891 3.35727 11.6929 3.36377 11.6955 3.37072C11.6849 3.34285 11.6757 3.31429 11.6701 3.28478L11.6868 3.35021ZM20.9993 3.15294L20.968 3.28478C20.9647 3.30231 20.9594 3.31955 20.9543 3.33654C20.9595 3.31939 20.9657 3.30248 20.969 3.28478C20.9772 3.24077 20.9876 3.1967 21.0002 3.15294C21.0162 3.09764 21.035 3.04385 21.0569 2.99181L20.9993 3.15294ZM11.5071 2.83947C11.5622 2.93708 11.6068 3.04182 11.6389 3.15294L11.5823 2.99181C11.5603 2.93965 11.5355 2.88915 11.508 2.84044L11.5071 2.83947ZM21.72 2.25255C21.7006 2.26385 21.6822 2.27671 21.6633 2.28868C21.6934 2.26956 21.7238 2.25057 21.7551 2.23302L21.72 2.25255ZM22.3821 2.02013C22.3771 2.02091 22.3723 2.02223 22.3674 2.02306C22.4321 2.01205 22.4979 2.00427 22.5647 1.99962L22.3821 2.02013ZM24.841 7.50841C24.8258 7.44937 24.8061 7.39127 24.7844 7.33361C24.8066 7.39102 24.8258 7.44925 24.841 7.50841Z" fill="white"/>
<path d="M9.31216 2.08195C8.28383 2.37887 7.65772 3.33971 7.91409 4.22783C7.92996 4.28279 7.94927 4.33594 7.9715 4.38737C8.03375 4.53142 8.02381 4.7001 7.93875 4.83197C7.68973 5.21802 7.59823 5.67538 7.72538 6.11599C7.77186 6.27697 7.84442 6.42436 7.93797 6.55616C8.0481 6.71131 8.06327 6.92425 7.96851 7.08924C7.75685 7.45779 7.68581 7.8832 7.80429 8.29383C7.88678 8.57951 8.05071 8.82269 8.26924 9.0114C8.45039 9.16784 8.50768 9.45419 8.39545 9.6656C8.20604 10.0224 8.14714 10.4282 8.26031 10.8202C8.51685 11.7081 9.55794 12.1876 10.5861 11.8909C10.6787 11.8641 10.7677 11.8312 10.8531 11.7935C10.9627 11.7453 11.088 11.7463 11.1984 11.7928C11.6088 11.966 12.1032 12.0027 12.5951 11.8607C13.6233 11.5637 14.2486 10.6032 13.9922 9.71511C13.9098 9.4296 13.7464 9.18614 13.5283 8.9972C13.3476 8.84056 13.2903 8.55441 13.4024 8.34308C13.5915 7.98624 13.6502 7.5803 13.5371 7.18848C13.461 6.92528 13.3159 6.69828 13.1226 6.51669C12.9569 6.36109 12.9084 6.09492 13.0145 5.89393C13.202 5.5387 13.2605 5.13545 13.1479 4.74551C12.9937 4.21181 12.5558 3.82675 12.0078 3.66841C11.8328 3.61786 11.7026 3.46336 11.6692 3.28435C11.6609 3.24033 11.6506 3.19639 11.6379 3.15263C11.3815 2.2646 10.3404 1.78515 9.31216 2.08195Z" fill="#F8C2D0"/>
<path d="M10.1998 5.47989C9.77349 5.60298 9.53068 6.05893 9.65736 6.49846C9.69347 6.62353 9.68815 6.76055 9.64106 6.88191C9.57735 7.04613 9.56463 7.23311 9.6178 7.41758C9.62862 7.45507 9.64191 7.49117 9.65738 7.5258C9.7263 7.68002 9.73959 7.86464 9.69468 8.02748C9.65499 8.17138 9.6532 8.32861 9.69804 8.48405C9.72076 8.56274 9.75385 8.63551 9.79528 8.70127C9.90985 8.88308 9.95959 9.13785 9.92266 9.34955C9.90133 9.47181 9.90679 9.60131 9.94377 9.72941C10.0709 10.1688 10.5194 10.4251 10.9457 10.3021C11.0645 10.2678 11.1943 10.2696 11.3105 10.3121C11.4606 10.3671 11.6265 10.3779 11.7904 10.3306C12.2169 10.2074 12.4596 9.75072 12.3326 9.31106C12.3098 9.23226 12.2767 9.15922 12.2353 9.09316C12.1215 8.9115 12.072 8.65723 12.1085 8.44598C12.1297 8.32386 12.1241 8.19454 12.0871 8.06664C12.066 7.99356 12.0358 7.9258 11.9983 7.86407C11.8926 7.69034 11.8508 7.45609 11.8893 7.25641C11.9135 7.1304 11.9092 6.99628 11.8709 6.86359C11.8034 6.63018 11.645 6.4485 11.4475 6.34786C11.3305 6.28822 11.2381 6.17874 11.2017 6.05256C11.0746 5.6132 10.6261 5.35689 10.1998 5.47989Z" fill="#FAF9F7"/>
<path d="M23.3263 2.08195C24.3546 2.37887 24.9807 3.33971 24.7243 4.22783C24.7085 4.28278 24.6893 4.33598 24.6672 4.38749C24.6054 4.53165 24.6155 4.70034 24.7004 4.8322C24.9491 5.2182 25.0401 5.67558 24.913 6.11599C24.8665 6.27705 24.7937 6.4243 24.7 6.55596C24.5895 6.71102 24.5744 6.92405 24.6693 7.08907C24.8812 7.45764 24.9526 7.88307 24.8341 8.29383C24.7517 8.57928 24.5878 8.82205 24.3694 9.01051C24.1882 9.16687 24.131 9.45318 24.2432 9.66459C24.4326 10.0217 24.4914 10.428 24.3781 10.8202C24.1216 11.7081 23.0805 12.1876 22.0523 11.8909C21.9598 11.8641 21.8707 11.8312 21.7853 11.7935C21.6757 11.7453 21.5504 11.7462 21.4401 11.7928C21.0297 11.966 20.5352 12.0027 20.0434 11.8607C19.0153 11.5636 18.3899 10.6031 18.6462 9.71511C18.7287 9.42963 18.8921 9.18615 19.1102 8.99719C19.2909 8.84057 19.3481 8.55445 19.2361 8.34314C19.0469 7.98628 18.9882 7.58032 19.1013 7.18848C19.1774 6.92528 19.3226 6.69828 19.5159 6.51669C19.6815 6.36109 19.73 6.09492 19.6239 5.89393C19.4364 5.5387 19.378 5.13545 19.4906 4.74551C19.6447 4.21181 20.0827 3.82676 20.6307 3.66841C20.8056 3.61786 20.9359 3.46336 20.9693 3.28436C20.9775 3.24033 20.9878 3.19639 21.0005 3.15263C21.2569 2.2646 22.298 1.78516 23.3263 2.08195Z" fill="#F8C2D0"/>
<path d="M22.4389 5.47989C22.8652 5.60298 23.108 6.05893 22.9813 6.49846C22.9452 6.62353 22.9505 6.76055 22.9976 6.88191C23.0613 7.04613 23.074 7.23311 23.0209 7.41758C23.01 7.45507 22.9968 7.49117 22.9813 7.5258C22.9124 7.68002 22.8991 7.86464 22.944 8.02748C22.9837 8.17138 22.9855 8.32861 22.9406 8.48405C22.9179 8.56275 22.8848 8.63553 22.8434 8.7013C22.7288 8.8831 22.6791 9.13779 22.7161 9.34947C22.7374 9.47142 22.732 9.60059 22.6952 9.72847C22.5682 10.1681 22.1194 10.4251 21.693 10.3021C21.5742 10.2678 21.4444 10.2696 21.3282 10.3121C21.178 10.3671 21.0122 10.3779 20.8482 10.3306C20.4219 10.2075 20.1792 9.75152 20.3058 9.312C20.3286 9.23302 20.3618 9.15986 20.4033 9.09371C20.5175 8.91188 20.567 8.65717 20.5303 8.44563C20.5091 8.32366 20.5146 8.19449 20.5515 8.06664C20.5726 7.99362 20.6028 7.92591 20.6403 7.86423C20.7459 7.6904 20.7876 7.45605 20.7492 7.25629C20.725 7.13067 20.7293 6.99699 20.7675 6.86453C20.835 6.63078 20.9934 6.44861 21.1911 6.34782C21.3081 6.28818 21.4006 6.17872 21.437 6.05256C21.5641 5.6132 22.0126 5.35689 22.4389 5.47989Z" fill="#FAF9F7"/>
<path d="M14.7462 7.54009C15.6823 6.95096 16.8733 6.95096 17.8094 7.54009L18.0763 7.70802C18.3114 7.85602 18.5954 7.90549 18.8667 7.84573L19.1942 7.7736C20.2982 7.53046 21.4423 7.95679 22.1179 8.86311L22.2098 8.98633C22.3833 9.21908 22.6449 9.37023 22.9332 9.40431L23.191 9.43479C24.3398 9.5706 25.2852 10.4021 25.5667 11.5241C25.6399 11.8159 25.8377 12.0608 26.1075 12.1938L26.2773 12.2774C27.3 12.7815 27.8729 13.8951 27.6884 15.0203C27.6406 15.312 27.7309 15.6093 27.9328 15.8252L27.9649 15.8595C28.761 16.7101 28.8826 17.9917 28.262 18.9776C28.1048 19.2275 28.074 19.537 28.1793 19.8128C28.5886 20.8851 28.2323 22.0987 27.3083 22.7795L27.2058 22.855C26.9663 23.0314 26.8197 23.307 26.8072 23.6043C26.7593 24.7467 25.9894 25.7319 24.8924 26.0545L24.6691 26.1202C24.3814 26.2049 24.1431 26.4077 24.0137 26.6783L23.9961 26.7152C23.4962 27.7604 22.4178 28.4036 21.2605 28.3465L20.9762 28.3325C20.6938 28.3186 20.4177 28.4184 20.2094 28.6095L20.0261 28.7777C19.2066 29.5298 18.0268 29.7417 16.9968 29.322L16.6768 29.1916C16.421 29.0873 16.1346 29.0873 15.8789 29.1916L15.5589 29.322C14.5289 29.7417 13.3491 29.5298 12.5296 28.7777L12.3463 28.6095C12.138 28.4184 11.8618 28.3186 11.5795 28.3325L11.2951 28.3465C10.1379 28.4036 9.05945 27.7604 8.55956 26.7152L8.54194 26.6783C8.41254 26.4077 8.17429 26.2049 7.88655 26.1202L7.66325 26.0545C6.56628 25.7319 5.79641 24.7467 5.74847 23.6043C5.73599 23.307 5.5894 23.0314 5.34987 22.855L5.24741 22.7795C4.3234 22.0987 3.96707 20.8851 4.37635 19.8128C4.48162 19.537 4.45087 19.2275 4.29363 18.9776C3.67311 17.9917 3.79471 16.7101 4.59073 15.8595L4.62283 15.8252C4.82481 15.6093 4.91512 15.312 4.86728 15.0203C4.68274 13.8951 5.25564 12.7815 6.2784 12.2774L6.44817 12.1938C6.71801 12.0608 6.91576 11.8159 6.98896 11.5241C7.27044 10.4021 8.21588 9.5706 9.36468 9.43479L9.62245 9.40431C9.91076 9.37023 10.1724 9.21908 10.3459 8.98633L10.4377 8.86311C11.1134 7.95678 12.2575 7.53046 13.3615 7.7736L13.689 7.84573C13.9603 7.90549 14.2443 7.85602 14.4794 7.70802L14.7462 7.54009Z" fill="#F8C2D0"/>
<circle cx="11.8728" cy="16.9713" r="1.05714" fill="#333333"/>
<circle cx="20.6824" cy="16.9713" r="1.05714" fill="#333333"/>
<ellipse cx="9.58246" cy="18.9976" rx="1.7619" ry="1.32143" fill="#F2AABE"/>
<ellipse cx="22.9731" cy="18.9976" rx="1.7619" ry="1.32143" fill="#F2AABE"/>
<path d="M14.1633 20.4069C14.4276 20.6712 15.3967 21.1998 16.2776 20.3188C17.1586 21.1998 18.1276 20.6712 18.3919 20.4069" stroke="#333333" stroke-width="0.528571" stroke-linecap="round" stroke-linejoin="round"/>
<path d="M15.485 18.6451C15.9255 19.0856 16.2779 19.0856 16.2779 19.0856C16.2779 19.0856 16.6303 19.0856 17.0707 18.6451C17.2388 18.4771 17.3742 18.2962 17.4774 18.1367C17.6135 17.9265 17.453 17.676 17.2026 17.676L16.2779 17.676L15.3532 17.676C15.1027 17.676 14.9423 17.9265 15.0784 18.1367C15.1816 18.2962 15.317 18.4771 15.485 18.6451Z" fill="#333333"/>
</g>
<defs>
<filter id="filter0_d_80_540" x="0.277832" y="0" width="32" height="32" filterUnits="userSpaceOnUse" color-interpolation-filters="sRGB">
<feFlood flood-opacity="0" result="BackgroundImageFix"/>
<feColorMatrix in="SourceAlpha" type="matrix" values="0 0 0 0 0 0 0 0 0 0 0 0 0 0 0 0 0 0 127 0" result="hardAlpha"/>
<feOffset/>
<feComposite in2="hardAlpha" operator="out"/>
<feColorMatrix type="matrix" values="0 0 0 0 1 0 0 0 0 1 0 0 0 0 1 0 0 0 1 0"/>
<feBlend mode="normal" in2="BackgroundImageFix" result="effect1_dropShadow_80_540"/>
<feBlend mode="normal" in="SourceGraphic" in2="effect1_dropShadow_80_540" result="shape"/>
</filter>
</defs>
</svg>
