<svg width="33" height="32" viewBox="0 0 33 32" fill="none" xmlns="http://www.w3.org/2000/svg">
<g filter="url(#filter0_d_80_616)">
<path d="M24.9082 3.55737C25.1861 3.56793 25.4425 3.72265 25.5791 3.97144L25.7432 4.30054C25.9955 4.84515 26.4443 5.98808 26.4766 7.28687L26.4775 7.73706C26.4712 8.0346 26.4509 8.3129 26.4238 8.56812C27.3553 9.79365 28.054 11.2021 28.4551 12.7302C29.2697 14.2837 29.7285 16.0235 29.7285 17.8611C29.7285 24.5466 23.7346 29.8269 16.5225 29.8269C9.31031 29.8269 3.31647 24.5466 3.31641 17.8611C3.31641 14.7033 4.6659 11.8449 6.84473 9.71948C6.72028 9.19133 6.57171 8.33173 6.59766 7.28687L6.61426 6.96558C6.73611 5.37839 7.42984 4.09218 7.49609 3.97144L7.56152 3.87085C7.73036 3.64982 8.00499 3.5294 8.28711 3.56128L8.65039 3.61694C9.24095 3.72467 10.4339 4.01677 11.5137 4.73901L11.8359 4.96362C11.9042 5.01336 11.9696 5.06442 12.0342 5.11401C12.4489 4.73507 12.9211 4.45956 13.3848 4.32104V4.32007C14.0382 4.10192 15.2966 3.80575 16.623 3.77319C16.6481 3.77081 16.6735 3.76832 16.6992 3.76831C16.7299 3.76831 16.7614 3.76906 16.792 3.76929L16.791 3.77026C17.0812 3.76816 17.3769 3.77767 17.6719 3.8064L17.6709 3.80737C19.0343 3.9138 20.3347 4.24248 21.5352 4.75659C21.5439 4.75071 21.5527 4.74489 21.5615 4.73901L21.833 4.56714C23.2003 3.75168 24.6512 3.57674 24.7881 3.56128L24.9082 3.55737Z" stroke="black" stroke-width="1.6" stroke-linecap="round" stroke-linejoin="round"/>
<path d="M28.0422 15.7341C28.0422 21.9007 22.9639 26.8997 16.6995 26.8997C16.6995 23.6209 16.6995 22.6982 16.6995 16.5317C16.6995 10.3651 16.6995 9.1766 16.6995 4.5686C22.9639 4.5686 28.0422 9.56759 28.0422 15.7341Z" fill="#45301C"/>
<path d="M8.44915 4.84402C8.89978 4.92795 9.77589 5.14167 10.5982 5.63079L10.8222 5.7721C11.4535 6.1944 11.9326 6.63749 12.2522 6.97336C12.3027 7.02645 12.3478 7.078 12.3902 7.12509L8.04221 9.3789C8.02817 9.31711 8.01206 9.25051 7.9978 9.17863C7.91885 8.78078 7.84311 8.23573 7.83804 7.5972L7.84051 7.31763C7.86686 6.25688 8.24042 5.29903 8.44915 4.84402Z" fill="#D1B186" stroke="#A36C39" stroke-width="0.886154"/>
<path d="M24.6256 4.84402C24.1749 4.92795 23.2988 5.14167 22.4765 5.63079L22.2526 5.7721C21.6212 6.1944 21.1421 6.63749 20.8225 6.97336C20.772 7.02645 20.7269 7.078 20.6845 7.12509L25.0325 9.3789C25.0465 9.31711 25.0626 9.25051 25.0769 9.17863C25.1559 8.78078 25.2316 8.23573 25.2367 7.5972L25.2342 7.31763C25.2078 6.25688 24.8343 5.29903 24.6256 4.84402Z" fill="#D1B186" stroke="#A36C39" stroke-width="0.886154"/>
<mask id="mask0_80_616" style="mask-type:alpha" maskUnits="userSpaceOnUse" x="4" y="6" width="25" height="24">
<ellipse cx="16.5224" cy="17.861" rx="12.4062" ry="11.1655" fill="#FDBB4B"/>
</mask>
<g mask="url(#mask0_80_616)">
<ellipse cx="16.5224" cy="17.861" rx="12.4062" ry="11.1655" fill="#A36C39"/>
<ellipse cx="16.5223" cy="19.456" rx="4.608" ry="3.01292" fill="#D1B186"/>
<circle cx="18.6494" cy="19.456" r="0.354462" fill="#333333"/>
<circle cx="14.3955" cy="19.456" r="0.354462" fill="#333333"/>
</g>
<circle cx="12.0917" cy="16.443" r="1.06338" fill="#333333"/>
<circle cx="20.953" cy="16.443" r="1.06338" fill="#333333"/>
<ellipse cx="9.78744" cy="18.4813" rx="1.77231" ry="1.32923" fill="#F2AABE"/>
<ellipse cx="23.2569" cy="18.4813" rx="1.77231" ry="1.32923" fill="#F2AABE"/>
<path d="M18.462 4.75279C16.7311 4.30267 14.5246 4.7824 13.6377 5.07853C12.9944 5.26132 12.2343 5.84846 11.8249 6.70724C11.4448 8.33595 12.3804 9.07628 13.0529 9.63892C13.7254 10.2016 14.661 9.72776 14.9242 8.8986C14.8657 9.78699 15.3335 12.1264 16.5322 12.008C17.731 11.8895 18.462 9.90544 18.6374 9.07628C18.9298 9.46124 19.6899 10.3496 20.5671 9.52047C21.4442 8.69131 21.0349 6.97376 21.0349 6.82569C21.0349 6.67763 20.6256 5.31543 18.462 4.75279Z" fill="#45301C"/>
</g>
<defs>
<filter id="filter0_d_80_616" x="0.522217" y="0" width="32" height="32" filterUnits="userSpaceOnUse" color-interpolation-filters="sRGB">
<feFlood flood-opacity="0" result="BackgroundImageFix"/>
<feColorMatrix in="SourceAlpha" type="matrix" values="0 0 0 0 0 0 0 0 0 0 0 0 0 0 0 0 0 0 127 0" result="hardAlpha"/>
<feOffset/>
<feComposite in2="hardAlpha" operator="out"/>
<feColorMatrix type="matrix" values="0 0 0 0 1 0 0 0 0 1 0 0 0 0 1 0 0 0 1 0"/>
<feBlend mode="normal" in2="BackgroundImageFix" result="effect1_dropShadow_80_616"/>
<feBlend mode="normal" in="SourceGraphic" in2="effect1_dropShadow_80_616" result="shape"/>
</filter>
</defs>
</svg>
